<svg width="41" height="41" viewBox="0 0 41 41" fill="none" xmlns="http://www.w3.org/2000/svg">
<path d="M20.5352 28.0401V23.887" stroke="#047720" stroke-width="2.54422" stroke-linecap="round" stroke-linejoin="round"/>
<path fill-rule="evenodd" clip-rule="evenodd" d="M30.6777 9.4657C33.4442 9.4657 35.6705 11.7084 35.6705 14.4749V20.1062C31.6435 22.4635 26.3232 23.8877 20.5283 23.8877C14.7333 23.8877 9.42937 22.4635 5.40234 20.1062V14.4586C5.40234 11.692 7.64504 9.4657 10.4116 9.4657H30.6777Z" stroke="#047720" stroke-width="2.54422" stroke-linecap="round" stroke-linejoin="round"/>
<path d="M26.2676 9.4585V8.85935C26.2676 6.86221 24.647 5.24158 22.6498 5.24158H18.4264C16.4292 5.24158 14.8086 6.86221 14.8086 8.85935V9.4585" stroke="#047720" stroke-width="2.54422" stroke-linecap="round" stroke-linejoin="round"/>
<path d="M5.44141 26.0859L5.7508 30.1931C5.96034 32.9613 8.26687 35.1009 11.0416 35.1009H30.0292C32.8039 35.1009 35.1105 32.9613 35.32 30.1931L35.6294 26.0859" stroke="#047720" stroke-width="2.54422" stroke-linecap="round" stroke-linejoin="round"/>
</svg>
