<svg width="20" height="20" viewBox="0 0 20 20" fill="none" xmlns="http://www.w3.org/2000/svg">
<path d="M6.41439 13.6076C6.84173 13.6076 7.18815 13.2612 7.18815 12.8338C7.18815 12.4065 6.84173 12.0601 6.41439 12.0601C5.98705 12.0601 5.64062 12.4065 5.64062 12.8338C5.64062 13.2612 5.98705 13.6076 6.41439 13.6076Z" stroke="black" stroke-width="0.7" stroke-linecap="round" stroke-linejoin="round"/>
<path d="M13.3792 13.6076C13.8066 13.6076 14.153 13.2612 14.153 12.8338C14.153 12.4065 13.8066 12.0601 13.3792 12.0601C12.9519 12.0601 12.6055 12.4065 12.6055 12.8338C12.6055 13.2612 12.9519 13.6076 13.3792 13.6076Z" stroke="black" stroke-width="0.7" stroke-linecap="round" stroke-linejoin="round"/>
<path d="M8.73828 12.0601H11.0596" stroke="black" stroke-width="0.7" stroke-linecap="round" stroke-linejoin="round"/>
<path d="M8.73828 13.6074H11.0596" stroke="black" stroke-width="0.7" stroke-linecap="round" stroke-linejoin="round"/>
<path d="M2.54688 16.7026V17.4764C2.54688 17.6816 2.6284 17.8784 2.7735 18.0235C2.91861 18.1686 3.11542 18.2502 3.32064 18.2502H4.86816C5.07338 18.2502 5.27019 18.1686 5.4153 18.0235C5.56041 17.8784 5.64193 17.6816 5.64193 17.4764V16.7026" stroke="black" stroke-width="0.7" stroke-linecap="round" stroke-linejoin="round"/>
<path d="M14.1523 16.7026V17.4764C14.1523 17.6816 14.2339 17.8784 14.379 18.0235C14.5241 18.1686 14.7209 18.2502 14.9261 18.2502H16.4736C16.6788 18.2502 16.8757 18.1686 17.0208 18.0235C17.1659 17.8784 17.2474 17.6816 17.2474 17.4764V16.7026" stroke="black" stroke-width="0.7" stroke-linecap="round" stroke-linejoin="round"/>
<path d="M4.09375 15.1548V11.6729C4.09375 11.365 4.21603 11.0698 4.43369 10.8522C4.65136 10.6345 4.94657 10.5122 5.25439 10.5122H14.5395C14.8474 10.5122 15.1426 10.6345 15.3602 10.8522C15.5779 11.0698 15.7002 11.365 15.7002 11.6729V15.1548" stroke="black" stroke-width="0.7" stroke-linecap="round" stroke-linejoin="round"/>
<path d="M1.77344 15.1548H7.18978L7.57666 15.5417H12.2192L12.6061 15.1548H18.0225V16.7023H1.77344V15.1548Z" stroke="black" stroke-width="0.7" stroke-linecap="round" stroke-linejoin="round"/>
<path d="M17.2484 15.1549V5.09603C17.2492 4.84523 17.1891 4.59798 17.0732 4.37558C16.9572 4.15317 16.789 3.96228 16.5829 3.81932C14.5658 2.60597 12.2514 1.97648 9.89762 2.00098C7.5453 1.97181 5.23102 2.59591 3.21231 3.80385C3.00732 3.94606 2.83975 4.13572 2.72388 4.35668C2.60801 4.57763 2.54729 4.82332 2.54688 5.07282V15.1317" stroke="black" stroke-width="0.7" stroke-linecap="round" stroke-linejoin="round"/>
<path d="M4.86751 5.09619H14.9264C15.1316 5.09619 15.3285 5.17771 15.4736 5.32282C15.6187 5.46793 15.7002 5.66474 15.7002 5.86995V8.96501H4.09375V5.86995C4.09375 5.66474 4.17527 5.46793 4.32038 5.32282C4.46549 5.17771 4.6623 5.09619 4.86751 5.09619Z" stroke="black" stroke-width="0.7" stroke-linecap="round" stroke-linejoin="round"/>
<path d="M9.89844 5.09619V8.96501" stroke="black" stroke-width="0.7" stroke-linecap="round" stroke-linejoin="round"/>
<path d="M2.54753 5.86963H1.77376C1.56855 5.86963 1.37174 5.95115 1.22663 6.09626C1.08152 6.24137 1 6.43818 1 6.64339" stroke="black" stroke-width="0.7" stroke-linecap="round" stroke-linejoin="round"/>
<path d="M1 6.64355H1.38688V8.19108H1V6.64355Z" stroke="black" stroke-width="0.7" stroke-linecap="round" stroke-linejoin="round"/>
<path d="M17.25 5.86963H18.0238C18.229 5.86963 18.4258 5.95115 18.5709 6.09626C18.716 6.24137 18.7975 6.43818 18.7975 6.64339" stroke="black" stroke-width="0.7" stroke-linecap="round" stroke-linejoin="round"/>
<path d="M18.7969 8.19092H18.41V6.64339H18.7969V8.19092Z" stroke="black" stroke-width="0.7" stroke-linecap="round" stroke-linejoin="round"/>
<path d="M8.35156 3.16162H11.4466V3.93538H8.35156V3.16162Z" stroke="black" stroke-width="0.7" stroke-linecap="round" stroke-linejoin="round"/>
</svg>
