<svg width="29" height="41" viewBox="0 0 29 41" fill="none" xmlns="http://www.w3.org/2000/svg">
<path d="M18.5996 2H10.5996C6.59961 2 4.59961 4 4.59961 8V21C4.59961 21.55 5.04961 22 5.59961 22H18.5996C22.5996 22 24.5996 20 24.5996 16V8C24.5996 4 22.5996 2 18.5996 2Z" stroke="#888888" stroke-width="1.5" stroke-linecap="round" stroke-linejoin="round"/>
<path d="M9.59961 9.5H19.5996" stroke="#888888" stroke-width="1.5" stroke-miterlimit="10" stroke-linecap="round" stroke-linejoin="round"/>
<path d="M9.59961 14.5H16.5996" stroke="#888888" stroke-width="1.5" stroke-miterlimit="10" stroke-linecap="round" stroke-linejoin="round"/>
<path d="M0.0436094 35.812C0.0436094 34.996 0.231609 34.264 0.607609 33.616C0.991609 32.968 1.50761 32.464 2.15561 32.104C2.81161 31.736 3.52761 31.552 4.30361 31.552C5.19161 31.552 5.97961 31.772 6.66761 32.212C7.36361 32.644 7.86761 33.26 8.17961 34.06H6.53561C6.31961 33.62 6.01961 33.292 5.63561 33.076C5.25161 32.86 4.80761 32.752 4.30361 32.752C3.75161 32.752 3.25961 32.876 2.82761 33.124C2.39561 33.372 2.05561 33.728 1.80761 34.192C1.56761 34.656 1.44761 35.196 1.44761 35.812C1.44761 36.428 1.56761 36.968 1.80761 37.432C2.05561 37.896 2.39561 38.256 2.82761 38.512C3.25961 38.76 3.75161 38.884 4.30361 38.884C4.80761 38.884 5.25161 38.776 5.63561 38.56C6.01961 38.344 6.31961 38.016 6.53561 37.576H8.17961C7.86761 38.376 7.36361 38.992 6.66761 39.424C5.97961 39.856 5.19161 40.072 4.30361 40.072C3.51961 40.072 2.80361 39.892 2.15561 39.532C1.50761 39.164 0.991609 38.656 0.607609 38.008C0.231609 37.36 0.0436094 36.628 0.0436094 35.812ZM13.2009 33.28C13.7049 33.28 14.1529 33.388 14.5449 33.604C14.9449 33.82 15.2569 34.14 15.4809 34.564C15.7129 34.988 15.8289 35.5 15.8289 36.1V40H14.4729V36.304C14.4729 35.712 14.3249 35.26 14.0289 34.948C13.7329 34.628 13.3289 34.468 12.8169 34.468C12.3049 34.468 11.8969 34.628 11.5929 34.948C11.2969 35.26 11.1489 35.712 11.1489 36.304V40H9.78086V31.12H11.1489V34.156C11.3809 33.876 11.6729 33.66 12.0249 33.508C12.3849 33.356 12.7769 33.28 13.2009 33.28ZM17.1178 36.664C17.1178 36 17.2538 35.412 17.5258 34.9C17.8058 34.388 18.1818 33.992 18.6538 33.712C19.1338 33.424 19.6618 33.28 20.2378 33.28C20.7578 33.28 21.2098 33.384 21.5938 33.592C21.9858 33.792 22.2978 34.044 22.5298 34.348V33.388H23.9098V40H22.5298V39.016C22.2978 39.328 21.9818 39.588 21.5818 39.796C21.1818 40.004 20.7258 40.108 20.2138 40.108C19.6458 40.108 19.1258 39.964 18.6538 39.676C18.1818 39.38 17.8058 38.972 17.5258 38.452C17.2538 37.924 17.1178 37.328 17.1178 36.664ZM22.5298 36.688C22.5298 36.232 22.4338 35.836 22.2418 35.5C22.0578 35.164 21.8138 34.908 21.5098 34.732C21.2058 34.556 20.8778 34.468 20.5258 34.468C20.1738 34.468 19.8458 34.556 19.5418 34.732C19.2378 34.9 18.9898 35.152 18.7978 35.488C18.6138 35.816 18.5218 36.208 18.5218 36.664C18.5218 37.12 18.6138 37.52 18.7978 37.864C18.9898 38.208 19.2378 38.472 19.5418 38.656C19.8538 38.832 20.1818 38.92 20.5258 38.92C20.8778 38.92 21.2058 38.832 21.5098 38.656C21.8138 38.48 22.0578 38.224 22.2418 37.888C22.4338 37.544 22.5298 37.144 22.5298 36.688ZM27.3026 34.504V38.164C27.3026 38.412 27.3586 38.592 27.4706 38.704C27.5906 38.808 27.7906 38.86 28.0706 38.86H28.9106V40H27.8306C27.2146 40 26.7426 39.856 26.4146 39.568C26.0866 39.28 25.9226 38.812 25.9226 38.164V34.504H25.1426V33.388H25.9226V31.744H27.3026V33.388H28.9106V34.504H27.3026Z" fill="#888888"/>
</svg>
