<svg width="51" height="41" viewBox="0 0 51 41" fill="none" xmlns="http://www.w3.org/2000/svg">
<path d="M23.3617 10.87C23.2617 10.86 23.1417 10.86 23.0317 10.87C20.6517 10.79 18.7617 8.84 18.7617 6.44C18.7617 3.99 20.7417 2 23.2017 2C25.6517 2 27.6417 3.99 27.6417 6.44C27.6317 8.84 25.7417 10.79 23.3617 10.87Z" stroke="#888888" stroke-width="1.5" stroke-linecap="round" stroke-linejoin="round"/>
<path d="M30.6105 4C32.5505 4 34.1105 5.57 34.1105 7.5C34.1105 9.39 32.6105 10.93 30.7405 11C30.6605 10.99 30.5705 10.99 30.4805 11" stroke="#888888" stroke-width="1.5" stroke-linecap="round" stroke-linejoin="round"/>
<path d="M18.3619 14.56C15.9419 16.18 15.9419 18.82 18.3619 20.43C21.1119 22.27 25.6219 22.27 28.3719 20.43C30.7919 18.81 30.7919 16.17 28.3719 14.56C25.6319 12.73 21.1219 12.73 18.3619 14.56Z" stroke="#888888" stroke-width="1.5" stroke-linecap="round" stroke-linejoin="round"/>
<path d="M32.541 20C33.261 19.85 33.941 19.56 34.501 19.13C36.061 17.96 36.061 16.03 34.501 14.86C33.951 14.44 33.281 14.16 32.571 14" stroke="#888888" stroke-width="1.5" stroke-linecap="round" stroke-linejoin="round"/>
<path d="M0.645172 35.812C0.645172 34.996 0.833172 34.264 1.20917 33.616C1.59317 32.968 2.10917 32.464 2.75717 32.104C3.41317 31.736 4.12917 31.552 4.90517 31.552C5.79317 31.552 6.58117 31.772 7.26917 32.212C7.96517 32.644 8.46917 33.26 8.78117 34.06H7.13717C6.92117 33.62 6.62117 33.292 6.23717 33.076C5.85317 32.86 5.40917 32.752 4.90517 32.752C4.35317 32.752 3.86117 32.876 3.42917 33.124C2.99717 33.372 2.65717 33.728 2.40917 34.192C2.16917 34.656 2.04917 35.196 2.04917 35.812C2.04917 36.428 2.16917 36.968 2.40917 37.432C2.65717 37.896 2.99717 38.256 3.42917 38.512C3.86117 38.76 4.35317 38.884 4.90517 38.884C5.40917 38.884 5.85317 38.776 6.23717 38.56C6.62117 38.344 6.92117 38.016 7.13717 37.576H8.78117C8.46917 38.376 7.96517 38.992 7.26917 39.424C6.58117 39.856 5.79317 40.072 4.90517 40.072C4.12117 40.072 3.40517 39.892 2.75717 39.532C2.10917 39.164 1.59317 38.656 1.20917 38.008C0.833172 37.36 0.645172 36.628 0.645172 35.812ZM13.8024 33.28C14.3064 33.28 14.7544 33.388 15.1464 33.604C15.5464 33.82 15.8584 34.14 16.0824 34.564C16.3144 34.988 16.4304 35.5 16.4304 36.1V40H15.0744V36.304C15.0744 35.712 14.9264 35.26 14.6304 34.948C14.3344 34.628 13.9304 34.468 13.4184 34.468C12.9064 34.468 12.4984 34.628 12.1944 34.948C11.8984 35.26 11.7504 35.712 11.7504 36.304V40H10.3824V31.12H11.7504V34.156C11.9824 33.876 12.2744 33.66 12.6264 33.508C12.9864 33.356 13.3784 33.28 13.8024 33.28ZM18.8714 32.512C18.6234 32.512 18.4154 32.428 18.2474 32.26C18.0794 32.092 17.9954 31.884 17.9954 31.636C17.9954 31.388 18.0794 31.18 18.2474 31.012C18.4154 30.844 18.6234 30.76 18.8714 30.76C19.1114 30.76 19.3154 30.844 19.4834 31.012C19.6514 31.18 19.7354 31.388 19.7354 31.636C19.7354 31.884 19.6514 32.092 19.4834 32.26C19.3154 32.428 19.1114 32.512 18.8714 32.512ZM19.5434 33.388V40H18.1754V33.388H19.5434ZM22.7075 31.12V40H21.3395V31.12H22.7075ZM24.0475 36.664C24.0475 36 24.1835 35.412 24.4555 34.9C24.7355 34.388 25.1115 33.992 25.5835 33.712C26.0635 33.424 26.5955 33.28 27.1795 33.28C27.6115 33.28 28.0355 33.376 28.4515 33.568C28.8755 33.752 29.2115 34 29.4595 34.312V31.12H30.8395V40H29.4595V39.004C29.2355 39.324 28.9235 39.588 28.5235 39.796C28.1315 40.004 27.6795 40.108 27.1675 40.108C26.5915 40.108 26.0635 39.964 25.5835 39.676C25.1115 39.38 24.7355 38.972 24.4555 38.452C24.1835 37.924 24.0475 37.328 24.0475 36.664ZM29.4595 36.688C29.4595 36.232 29.3635 35.836 29.1715 35.5C28.9875 35.164 28.7435 34.908 28.4395 34.732C28.1355 34.556 27.8075 34.468 27.4555 34.468C27.1035 34.468 26.7755 34.556 26.4715 34.732C26.1675 34.9 25.9195 35.152 25.7275 35.488C25.5435 35.816 25.4515 36.208 25.4515 36.664C25.4515 37.12 25.5435 37.52 25.7275 37.864C25.9195 38.208 26.1675 38.472 26.4715 38.656C26.7835 38.832 27.1115 38.92 27.4555 38.92C27.8075 38.92 28.1355 38.832 28.4395 38.656C28.7435 38.48 28.9875 38.224 29.1715 37.888C29.3635 37.544 29.4595 37.144 29.4595 36.688ZM34.0043 34.348C34.2043 34.012 34.4683 33.752 34.7963 33.568C35.1323 33.376 35.5283 33.28 35.9843 33.28V34.696H35.6363C35.1003 34.696 34.6923 34.832 34.4123 35.104C34.1403 35.376 34.0043 35.848 34.0043 36.52V40H32.6363V33.388H34.0043V34.348ZM43.3018 36.532C43.3018 36.78 43.2858 37.004 43.2538 37.204H38.2018C38.2418 37.732 38.4378 38.156 38.7898 38.476C39.1418 38.796 39.5738 38.956 40.0858 38.956C40.8218 38.956 41.3418 38.648 41.6458 38.032H43.1218C42.9218 38.64 42.5578 39.14 42.0298 39.532C41.5098 39.916 40.8618 40.108 40.0858 40.108C39.4538 40.108 38.8858 39.968 38.3818 39.688C37.8858 39.4 37.4938 39 37.2058 38.488C36.9258 37.968 36.7858 37.368 36.7858 36.688C36.7858 36.008 36.9218 35.412 37.1938 34.9C37.4738 34.38 37.8618 33.98 38.3578 33.7C38.8618 33.42 39.4378 33.28 40.0858 33.28C40.7098 33.28 41.2658 33.416 41.7538 33.688C42.2418 33.96 42.6218 34.344 42.8938 34.84C43.1658 35.328 43.3018 35.892 43.3018 36.532ZM41.8738 36.1C41.8658 35.596 41.6858 35.192 41.3338 34.888C40.9818 34.584 40.5458 34.432 40.0258 34.432C39.5538 34.432 39.1498 34.584 38.8138 34.888C38.4778 35.184 38.2778 35.588 38.2138 36.1H41.8738ZM47.984 33.28C48.504 33.28 48.968 33.388 49.376 33.604C49.792 33.82 50.116 34.14 50.348 34.564C50.58 34.988 50.696 35.5 50.696 36.1V40H49.34V36.304C49.34 35.712 49.192 35.26 48.896 34.948C48.6 34.628 48.196 34.468 47.684 34.468C47.172 34.468 46.764 34.628 46.46 34.948C46.164 35.26 46.016 35.712 46.016 36.304V40H44.648V33.388H46.016V34.144C46.24 33.872 46.524 33.66 46.868 33.508C47.22 33.356 47.592 33.28 47.984 33.28Z" fill="#888888"/>
</svg>
