<svg width="60" height="41" viewBox="0 0 60 41" fill="none" xmlns="http://www.w3.org/2000/svg">
<path d="M27.0012 14.78L29.5812 17.04C29.7012 17.15 29.8912 17.15 30.0112 17.04L32.5912 14.78C33.2612 14.19 33.3512 13.19 32.7912 12.49C32.2312 11.79 31.2112 11.66 30.5012 12.2L29.8012 12.74L29.0912 12.21C28.3712 11.67 27.3612 11.8 26.8012 12.5C26.2412 13.19 26.3312 14.2 27.0012 14.78Z" stroke="#888888" stroke-width="1.5" stroke-linecap="round" stroke-linejoin="round"/>
<path d="M39.8008 11V17C39.8008 21 38.8008 22 34.8008 22H24.8008C20.8008 22 19.8008 21 19.8008 17V7C19.8008 3 20.8008 2 24.8008 2H26.3008C27.8008 2 28.1308 2.44 28.7008 3.2L30.2008 5.2C30.5808 5.7 30.8008 6 31.8008 6H34.8008C38.8008 6 39.8008 7 39.8008 11Z" stroke="#888888" stroke-width="1.5" stroke-miterlimit="10"/>
<path d="M0.244781 35.812C0.244781 34.996 0.432781 34.264 0.808781 33.616C1.19278 32.968 1.70878 32.464 2.35678 32.104C3.01278 31.736 3.72878 31.552 4.50478 31.552C5.39278 31.552 6.18078 31.772 6.86878 32.212C7.56478 32.644 8.06878 33.26 8.38078 34.06H6.73678C6.52078 33.62 6.22078 33.292 5.83678 33.076C5.45278 32.86 5.00878 32.752 4.50478 32.752C3.95278 32.752 3.46078 32.876 3.02878 33.124C2.59678 33.372 2.25678 33.728 2.00878 34.192C1.76878 34.656 1.64878 35.196 1.64878 35.812C1.64878 36.428 1.76878 36.968 2.00878 37.432C2.25678 37.896 2.59678 38.256 3.02878 38.512C3.46078 38.76 3.95278 38.884 4.50478 38.884C5.00878 38.884 5.45278 38.776 5.83678 38.56C6.22078 38.344 6.52078 38.016 6.73678 37.576H8.38078C8.06878 38.376 7.56478 38.992 6.86878 39.424C6.18078 39.856 5.39278 40.072 4.50478 40.072C3.72078 40.072 3.00478 39.892 2.35678 39.532C1.70878 39.164 1.19278 38.656 0.808781 38.008C0.432781 37.36 0.244781 36.628 0.244781 35.812ZM12.85 40.108C12.226 40.108 11.662 39.968 11.158 39.688C10.654 39.4 10.258 39 9.97003 38.488C9.68203 37.968 9.53803 37.368 9.53803 36.688C9.53803 36.016 9.68603 35.42 9.98203 34.9C10.278 34.38 10.682 33.98 11.194 33.7C11.706 33.42 12.278 33.28 12.91 33.28C13.542 33.28 14.114 33.42 14.626 33.7C15.138 33.98 15.542 34.38 15.838 34.9C16.134 35.42 16.282 36.016 16.282 36.688C16.282 37.36 16.13 37.956 15.826 38.476C15.522 38.996 15.106 39.4 14.578 39.688C14.058 39.968 13.482 40.108 12.85 40.108ZM12.85 38.92C13.202 38.92 13.53 38.836 13.834 38.668C14.146 38.5 14.398 38.248 14.59 37.912C14.782 37.576 14.878 37.168 14.878 36.688C14.878 36.208 14.786 35.804 14.602 35.476C14.418 35.14 14.174 34.888 13.87 34.72C13.566 34.552 13.238 34.468 12.886 34.468C12.534 34.468 12.206 34.552 11.902 34.72C11.606 34.888 11.37 35.14 11.194 35.476C11.018 35.804 10.93 36.208 10.93 36.688C10.93 37.4 11.11 37.952 11.47 38.344C11.838 38.728 12.298 38.92 12.85 38.92ZM20.9704 33.28C21.4904 33.28 21.9544 33.388 22.3624 33.604C22.7784 33.82 23.1024 34.14 23.3344 34.564C23.5664 34.988 23.6824 35.5 23.6824 36.1V40H22.3264V36.304C22.3264 35.712 22.1784 35.26 21.8824 34.948C21.5864 34.628 21.1824 34.468 20.6704 34.468C20.1584 34.468 19.7504 34.628 19.4464 34.948C19.1504 35.26 19.0024 35.712 19.0024 36.304V40H17.6344V33.388H19.0024V34.144C19.2264 33.872 19.5104 33.66 19.8544 33.508C20.2064 33.356 20.5784 33.28 20.9704 33.28ZM27.0233 34.504V38.164C27.0233 38.412 27.0793 38.592 27.1913 38.704C27.3113 38.808 27.5113 38.86 27.7913 38.86H28.6313V40H27.5513C26.9353 40 26.4633 39.856 26.1353 39.568C25.8073 39.28 25.6433 38.812 25.6433 38.164V34.504H24.8633V33.388H25.6433V31.744H27.0233V33.388H28.6313V34.504H27.0233ZM31.2602 34.348C31.4602 34.012 31.7242 33.752 32.0522 33.568C32.3882 33.376 32.7842 33.28 33.2402 33.28V34.696H32.8922C32.3562 34.696 31.9482 34.832 31.6682 35.104C31.3962 35.376 31.2602 35.848 31.2602 36.52V40H29.8922V33.388H31.2602V34.348ZM34.0417 36.664C34.0417 36 34.1777 35.412 34.4497 34.9C34.7297 34.388 35.1057 33.992 35.5777 33.712C36.0577 33.424 36.5857 33.28 37.1617 33.28C37.6817 33.28 38.1337 33.384 38.5177 33.592C38.9097 33.792 39.2217 34.044 39.4537 34.348V33.388H40.8337V40H39.4537V39.016C39.2217 39.328 38.9057 39.588 38.5057 39.796C38.1057 40.004 37.6497 40.108 37.1377 40.108C36.5697 40.108 36.0497 39.964 35.5777 39.676C35.1057 39.38 34.7297 38.972 34.4497 38.452C34.1777 37.924 34.0417 37.328 34.0417 36.664ZM39.4537 36.688C39.4537 36.232 39.3577 35.836 39.1657 35.5C38.9817 35.164 38.7377 34.908 38.4337 34.732C38.1297 34.556 37.8017 34.468 37.4497 34.468C37.0977 34.468 36.7697 34.556 36.4657 34.732C36.1617 34.9 35.9137 35.152 35.7217 35.488C35.5377 35.816 35.4457 36.208 35.4457 36.664C35.4457 37.12 35.5377 37.52 35.7217 37.864C35.9137 38.208 36.1617 38.472 36.4657 38.656C36.7777 38.832 37.1057 38.92 37.4497 38.92C37.8017 38.92 38.1297 38.832 38.4337 38.656C38.7377 38.48 38.9817 38.224 39.1657 37.888C39.3577 37.544 39.4537 37.144 39.4537 36.688ZM42.1745 36.688C42.1745 36.008 42.3105 35.412 42.5825 34.9C42.8625 34.38 43.2465 33.98 43.7345 33.7C44.2225 33.42 44.7825 33.28 45.4145 33.28C46.2145 33.28 46.8745 33.472 47.3945 33.856C47.9225 34.232 48.2785 34.772 48.4625 35.476H46.9865C46.8665 35.148 46.6745 34.892 46.4105 34.708C46.1465 34.524 45.8145 34.432 45.4145 34.432C44.8545 34.432 44.4065 34.632 44.0705 35.032C43.7425 35.424 43.5785 35.976 43.5785 36.688C43.5785 37.4 43.7425 37.956 44.0705 38.356C44.4065 38.756 44.8545 38.956 45.4145 38.956C46.2065 38.956 46.7305 38.608 46.9865 37.912H48.4625C48.2705 38.584 47.9105 39.12 47.3825 39.52C46.8545 39.912 46.1985 40.108 45.4145 40.108C44.7825 40.108 44.2225 39.968 43.7345 39.688C43.2465 39.4 42.8625 39 42.5825 38.488C42.3105 37.968 42.1745 37.368 42.1745 36.688ZM51.4218 34.504V38.164C51.4218 38.412 51.4778 38.592 51.5898 38.704C51.7098 38.808 51.9098 38.86 52.1898 38.86H53.0298V40H51.9498C51.3338 40 50.8618 39.856 50.5338 39.568C50.2058 39.28 50.0418 38.812 50.0418 38.164V34.504H49.2618V33.388H50.0418V31.744H51.4218V33.388H53.0298V34.504H51.4218ZM56.6906 40.108C56.1706 40.108 55.7026 40.016 55.2866 39.832C54.8786 39.64 54.5546 39.384 54.3146 39.064C54.0746 38.736 53.9466 38.372 53.9306 37.972H55.3466C55.3706 38.252 55.5026 38.488 55.7426 38.68C55.9906 38.864 56.2986 38.956 56.6666 38.956C57.0506 38.956 57.3466 38.884 57.5546 38.74C57.7706 38.588 57.8786 38.396 57.8786 38.164C57.8786 37.916 57.7586 37.732 57.5186 37.612C57.2866 37.492 56.9146 37.36 56.4026 37.216C55.9066 37.08 55.5026 36.948 55.1906 36.82C54.8786 36.692 54.6066 36.496 54.3746 36.232C54.1506 35.968 54.0386 35.62 54.0386 35.188C54.0386 34.836 54.1426 34.516 54.3506 34.228C54.5586 33.932 54.8546 33.7 55.2386 33.532C55.6306 33.364 56.0786 33.28 56.5826 33.28C57.3346 33.28 57.9386 33.472 58.3946 33.856C58.8586 34.232 59.1066 34.748 59.1386 35.404H57.7706C57.7466 35.108 57.6266 34.872 57.4106 34.696C57.1946 34.52 56.9026 34.432 56.5346 34.432C56.1746 34.432 55.8986 34.5 55.7066 34.636C55.5146 34.772 55.4186 34.952 55.4186 35.176C55.4186 35.352 55.4826 35.5 55.6106 35.62C55.7386 35.74 55.8946 35.836 56.0786 35.908C56.2626 35.972 56.5346 36.056 56.8946 36.16C57.3746 36.288 57.7666 36.42 58.0706 36.556C58.3826 36.684 58.6506 36.876 58.8746 37.132C59.0986 37.388 59.2146 37.728 59.2226 38.152C59.2226 38.528 59.1186 38.864 58.9106 39.16C58.7026 39.456 58.4066 39.688 58.0226 39.856C57.6466 40.024 57.2026 40.108 56.6906 40.108Z" fill="#888888"/>
</svg>
