<svg width="14" height="13" viewBox="0 0 14 13" fill="none" xmlns="http://www.w3.org/2000/svg">
<path fill-rule="evenodd" clip-rule="evenodd" d="M12.6959 11.7627C12.9592 11.7627 13.1729 11.9764 13.1729 12.2397C13.1729 12.503 12.9592 12.7167 12.6959 12.7167H8.08255C7.81922 12.7167 7.60551 12.503 7.60551 12.2397C7.60551 11.9764 7.81922 11.7627 8.08255 11.7627H12.6959ZM9.74825 1.08592C9.78005 1.11072 10.8442 1.9376 10.8442 1.9376C11.2309 2.16785 11.533 2.57937 11.6475 3.06659C11.7614 3.54872 11.6787 4.04612 11.4134 4.46655C11.4117 4.46935 11.4099 4.47212 11.4038 4.48037L11.399 4.48673C11.3559 4.54347 11.1688 4.78012 10.2242 5.96356C10.2154 5.97907 10.2055 5.99359 10.1946 6.00771C10.1787 6.02851 10.1614 6.04764 10.1429 6.06505C10.0784 6.14617 10.0104 6.23141 9.93884 6.32103L9.79387 6.5026C9.49473 6.87722 9.13992 7.32144 8.71898 7.84833L8.50295 8.11873C7.69028 9.13588 6.64949 10.4382 5.31622 12.1062C5.02427 12.47 4.58667 12.6818 4.11662 12.6876L1.80202 12.7168H1.79566C1.57495 12.7168 1.38286 12.5654 1.33134 12.3498L0.810413 10.1421C0.70292 9.68474 0.809777 9.21279 1.103 8.84642L7.09463 1.35243C7.09717 1.34988 7.09908 1.3467 7.10163 1.34416C7.75867 0.558629 8.94682 0.442867 9.74825 1.08592ZM6.4266 3.71496L1.84782 9.4424C1.73905 9.57852 1.69898 9.75407 1.73905 9.92262L2.17221 11.7576L4.10517 11.7335C4.28899 11.7316 4.45882 11.6495 4.5714 11.5096C5.15116 10.7842 5.8798 9.87252 6.62895 8.93507L6.89399 8.6034L7.15949 8.27115C7.86206 7.39192 8.55615 6.52318 9.13691 5.79604L6.4266 3.71496ZM7.83627 1.95286L7.02258 2.9695L9.73267 5.04999C10.2543 4.39662 10.5975 3.96629 10.6292 3.92527C10.7335 3.75607 10.7742 3.51692 10.7195 3.28667C10.6635 3.05069 10.5166 2.85033 10.3048 2.72249C10.2596 2.69132 9.18789 1.85936 9.15481 1.83328C8.75155 1.51017 8.1632 1.56614 7.83627 1.95286Z" fill="#047720"/>
</svg>
