<svg width="25" height="41" viewBox="0 0 25 41" fill="none" xmlns="http://www.w3.org/2000/svg">
<path d="M15 5H21" stroke="#888888" stroke-width="1.5" stroke-linecap="round" stroke-linejoin="round"/>
<path d="M15 8H18" stroke="#888888" stroke-width="1.5" stroke-linecap="round" stroke-linejoin="round"/>
<path d="M22 11.5C22 16.75 17.75 21 12.5 21C7.25 21 3 16.75 3 11.5C3 6.25 7.25 2 12.5 2" stroke="#888888" stroke-width="1.5" stroke-linecap="round" stroke-linejoin="round"/>
<path d="M23 22L21 20" stroke="#888888" stroke-width="1.5" stroke-linecap="round" stroke-linejoin="round"/>
<path d="M5.808 31.66V32.776H2.268V35.236H5.028V36.352H2.268V40H0.9V31.66H5.808ZM7.77178 32.512C7.52378 32.512 7.31578 32.428 7.14778 32.26C6.97978 32.092 6.89578 31.884 6.89578 31.636C6.89578 31.388 6.97978 31.18 7.14778 31.012C7.31578 30.844 7.52378 30.76 7.77178 30.76C8.01178 30.76 8.21578 30.844 8.38378 31.012C8.55178 31.18 8.63578 31.388 8.63578 31.636C8.63578 31.884 8.55178 32.092 8.38378 32.26C8.21578 32.428 8.01178 32.512 7.77178 32.512ZM8.44378 33.388V40H7.07578V33.388H8.44378ZM13.5758 33.28C14.0958 33.28 14.5598 33.388 14.9678 33.604C15.3838 33.82 15.7078 34.14 15.9398 34.564C16.1718 34.988 16.2878 35.5 16.2878 36.1V40H14.9318V36.304C14.9318 35.712 14.7838 35.26 14.4878 34.948C14.1918 34.628 13.7878 34.468 13.2758 34.468C12.7638 34.468 12.3558 34.628 12.0518 34.948C11.7558 35.26 11.6078 35.712 11.6078 36.304V40H10.2398V33.388H11.6078V34.144C11.8318 33.872 12.1158 33.66 12.4598 33.508C12.8118 33.356 13.1838 33.28 13.5758 33.28ZM17.5768 36.664C17.5768 36 17.7128 35.412 17.9848 34.9C18.2648 34.388 18.6408 33.992 19.1128 33.712C19.5928 33.424 20.1248 33.28 20.7088 33.28C21.1408 33.28 21.5648 33.376 21.9808 33.568C22.4048 33.752 22.7408 34 22.9888 34.312V31.12H24.3688V40H22.9888V39.004C22.7648 39.324 22.4528 39.588 22.0528 39.796C21.6608 40.004 21.2088 40.108 20.6968 40.108C20.1208 40.108 19.5928 39.964 19.1128 39.676C18.6408 39.38 18.2648 38.972 17.9848 38.452C17.7128 37.924 17.5768 37.328 17.5768 36.664ZM22.9888 36.688C22.9888 36.232 22.8928 35.836 22.7008 35.5C22.5168 35.164 22.2728 34.908 21.9688 34.732C21.6648 34.556 21.3368 34.468 20.9848 34.468C20.6328 34.468 20.3048 34.556 20.0008 34.732C19.6968 34.9 19.4488 35.152 19.2568 35.488C19.0728 35.816 18.9808 36.208 18.9808 36.664C18.9808 37.12 19.0728 37.52 19.2568 37.864C19.4488 38.208 19.6968 38.472 20.0008 38.656C20.3128 38.832 20.6408 38.92 20.9848 38.92C21.3368 38.92 21.6648 38.832 21.9688 38.656C22.2728 38.48 22.5168 38.224 22.7008 37.888C22.8928 37.544 22.9888 37.144 22.9888 36.688Z" fill="#888888"/>
</svg>
