<svg width="330" height="224" viewBox="0 0 330 224" fill="none" xmlns="http://www.w3.org/2000/svg">
<g clip-path="url(#clip0_2800_15795)">
<path d="M64.9202 121.54C56.3066 112.814 51.0117 100.806 51.0117 87.6049C51.0117 60.9046 72.6761 39.2385 99.3744 39.2385C126.073 39.2385 147.774 60.8673 147.774 87.5676L110.524 59.2265L64.9202 121.54Z" fill="#00EA34"/>
<path fill-rule="evenodd" clip-rule="evenodd" d="M99.4095 24.8442C100.233 24.8442 100.901 25.5121 100.901 26.3359V31.5566C100.901 32.3804 100.233 33.0483 99.4095 33.0483C98.5857 33.0483 97.918 32.3804 97.918 31.5566V26.3359C97.918 25.5121 98.5857 24.8442 99.4095 24.8442Z" fill="#047720"/>
<path fill-rule="evenodd" clip-rule="evenodd" d="M99.4095 15.1486C100.233 15.1486 100.901 15.8164 100.901 16.6402V22.0847C100.901 22.9085 100.233 23.5763 99.4095 23.5763C98.5857 23.5763 97.918 22.9085 97.918 22.0847V16.6402C97.918 15.8164 98.5857 15.1486 99.4095 15.1486Z" fill="#047720"/>
<path fill-rule="evenodd" clip-rule="evenodd" d="M99.4095 3.17816C100.233 3.17816 100.901 3.84599 100.901 4.6698V11.7924C100.901 12.6162 100.233 13.284 99.4095 13.284C98.5857 13.284 97.918 12.6162 97.918 11.7924V4.6698C97.918 3.84599 98.5857 3.17816 99.4095 3.17816Z" fill="#047720"/>
<path fill-rule="evenodd" clip-rule="evenodd" d="M88.4779 25.8011C89.2883 25.6532 90.0651 26.1903 90.213 27.0007L91.1452 32.1096C91.2931 32.92 90.756 33.6969 89.9456 33.8448C89.1353 33.9927 88.3585 33.4556 88.2106 32.6452L87.2784 27.5363C87.1305 26.7259 87.6676 25.949 88.4779 25.8011Z" fill="#047720"/>
<path fill-rule="evenodd" clip-rule="evenodd" d="M86.801 16.2537C87.6116 16.1074 88.3874 16.6459 88.5338 17.4566L89.5033 22.8265C89.6497 23.6372 89.1112 24.4131 88.3005 24.5594C87.4899 24.7058 86.7141 24.1673 86.5677 23.3566L85.5982 17.9867C85.4518 17.176 85.9903 16.4001 86.801 16.2537Z" fill="#047720"/>
<path fill-rule="evenodd" clip-rule="evenodd" d="M84.7146 4.47023C85.5252 4.32363 86.3012 4.86195 86.4478 5.67261L87.7156 12.6833C87.8622 13.494 87.3239 14.27 86.5133 14.4166C85.7027 14.5632 84.9267 14.0249 84.7801 13.2142L83.5123 6.20352C83.3658 5.39286 83.904 4.61684 84.7146 4.47023Z" fill="#047720"/>
<path fill-rule="evenodd" clip-rule="evenodd" d="M77.9397 28.6271C78.7132 28.3437 79.5699 28.741 79.8533 29.5145L81.6432 34.3996C81.9266 35.1731 81.5293 36.03 80.7559 36.3134C79.9824 36.5968 79.1256 36.1995 78.8422 35.426L77.0524 30.5409C76.769 29.7674 77.1663 28.9105 77.9397 28.6271Z" fill="#047720"/>
<path fill-rule="evenodd" clip-rule="evenodd" d="M74.6251 19.5278C75.3989 19.2454 76.2552 19.6438 76.5376 20.4177L78.402 25.5265C78.6844 26.3004 78.2861 27.1567 77.5122 27.4392C76.7384 27.7216 75.8822 27.3232 75.5997 26.5493L73.7353 21.4405C73.4529 20.6666 73.8513 19.8103 74.6251 19.5278Z" fill="#047720"/>
<path fill-rule="evenodd" clip-rule="evenodd" d="M70.5214 8.26675C71.2948 7.98315 72.1517 8.38026 72.4353 9.15371L74.8963 15.8661C75.1799 16.6395 74.7828 17.4965 74.0094 17.7801C73.236 18.0637 72.3791 17.6665 72.0956 16.8931L69.6345 10.1807C69.351 9.40726 69.748 8.55035 70.5214 8.26675Z" fill="#047720"/>
<path fill-rule="evenodd" clip-rule="evenodd" d="M68.0105 33.2487C68.7235 32.8362 69.636 33.0798 70.0484 33.7929L72.6586 38.3051C73.0711 39.0182 72.8275 39.9307 72.1145 40.3432C71.4014 40.7557 70.489 40.5121 70.0765 39.799L67.4663 35.2868C67.0539 34.5737 67.2975 33.6612 68.0105 33.2487Z" fill="#047720"/>
<path fill-rule="evenodd" clip-rule="evenodd" d="M63.2055 24.8562C63.9197 24.4457 64.8314 24.6918 65.2419 25.4061L67.964 30.142C68.3745 30.8563 68.1283 31.7681 67.4141 32.1786C66.7 32.5891 65.7882 32.3429 65.3777 31.6287L62.6557 26.8928C62.2452 26.1785 62.4913 25.2667 63.2055 24.8562Z" fill="#047720"/>
<path fill-rule="evenodd" clip-rule="evenodd" d="M57.1982 14.4913C57.9113 14.0789 58.8237 14.3226 59.2361 15.0358L62.8157 21.2261C63.2281 21.9392 62.9843 22.8517 62.2713 23.2641C61.5582 23.6765 60.6458 23.4327 60.2334 22.7196L56.6537 16.5293C56.2413 15.8161 56.4851 14.9037 57.1982 14.4913Z" fill="#047720"/>
<path fill-rule="evenodd" clip-rule="evenodd" d="M59.0744 39.5141C59.7048 38.9838 60.6457 39.065 61.176 39.6955L64.5319 43.6856C65.0621 44.316 64.9809 45.257 64.3505 45.7873C63.7201 46.3176 62.7793 46.2364 62.249 45.6059L58.8931 41.6158C58.3628 40.9853 58.444 40.0444 59.0744 39.5141Z" fill="#047720"/>
<path fill-rule="evenodd" clip-rule="evenodd" d="M52.8491 32.0922C53.4801 31.5626 54.4209 31.6448 54.9504 32.2758L58.4555 36.4524C58.9851 37.0834 58.9029 38.0243 58.2719 38.5539C57.6409 39.0835 56.7001 39.0013 56.1706 38.3702L52.6655 34.1936C52.1359 33.5626 52.2181 32.6218 52.8491 32.0922Z" fill="#047720"/>
<path fill-rule="evenodd" clip-rule="evenodd" d="M45.1275 22.921C45.7572 22.3898 46.6982 22.4697 47.2293 23.0994L51.853 28.5811C52.3842 29.2108 52.3043 30.1519 51.6746 30.6831C51.045 31.2142 50.104 31.1344 49.5729 30.5047L44.9491 25.0229C44.418 24.3932 44.4979 23.4521 45.1275 22.921Z" fill="#047720"/>
<path fill-rule="evenodd" clip-rule="evenodd" d="M51.3566 47.2722C51.8833 46.6388 52.8238 46.5525 53.4571 47.0793L57.4469 50.3982C58.0802 50.925 58.1666 51.8655 57.6398 52.4988C57.113 53.1322 56.1726 53.2185 55.5393 52.6917L51.5495 49.3728C50.9162 48.846 50.8298 47.9055 51.3566 47.2722Z" fill="#047720"/>
<path fill-rule="evenodd" clip-rule="evenodd" d="M43.9432 41.0345C44.4755 40.4058 45.4167 40.3278 46.0453 40.8601L50.1843 44.3655C50.8129 44.8979 50.891 45.8391 50.3586 46.4678C49.8263 47.0964 48.8851 47.1745 48.2565 46.6421L44.1175 43.1368C43.4889 42.6044 43.4108 41.6631 43.9432 41.0345Z" fill="#047720"/>
<path fill-rule="evenodd" clip-rule="evenodd" d="M34.7266 33.322C35.2552 32.6902 36.1959 32.6066 36.8276 33.1352L42.309 37.722C42.9407 38.2507 43.0243 39.1914 42.4957 39.8232C41.9671 40.455 41.0264 40.5387 40.3947 40.01L34.9133 35.4232C34.2816 34.8945 34.1979 33.9538 34.7266 33.322Z" fill="#047720"/>
<path fill-rule="evenodd" clip-rule="evenodd" d="M45.0562 56.2044C45.4687 55.4913 46.3811 55.2477 47.0941 55.6602L51.606 58.2706C52.319 58.6831 52.5626 59.5956 52.1502 60.3087C51.7377 61.0218 50.8252 61.2654 50.1122 60.8529L45.6004 58.2425C44.8873 57.83 44.6437 56.9175 45.0562 56.2044Z" fill="#047720"/>
<path fill-rule="evenodd" clip-rule="evenodd" d="M36.6674 51.3602C37.0779 50.646 37.9896 50.3998 38.7038 50.8104L43.4394 53.5326C44.1536 53.9432 44.3998 54.855 43.9892 55.5692C43.5787 56.2834 42.667 56.5296 41.9528 56.1191L37.2172 53.3968C36.5031 52.9863 36.2569 52.0745 36.6674 51.3602Z" fill="#047720"/>
<path fill-rule="evenodd" clip-rule="evenodd" d="M26.3022 45.3534C26.7146 44.6402 27.6269 44.3964 28.34 44.8088L34.5299 48.3888C35.243 48.8012 35.4867 49.7136 35.0743 50.4268C34.6619 51.1399 33.7496 51.3837 33.0365 50.9713L26.8466 47.3914C26.1336 46.9789 25.8898 46.0665 26.3022 45.3534Z" fill="#047720"/>
<path fill-rule="evenodd" clip-rule="evenodd" d="M40.4306 66.1471C40.7069 65.371 41.56 64.9659 42.336 65.2422L47.258 66.9949C48.034 67.2712 48.4391 68.1244 48.1628 68.9005C47.8865 69.6765 47.0334 70.0817 46.2574 69.8053L41.3354 68.0527C40.5594 67.7763 40.1543 66.9232 40.4306 66.1471Z" fill="#047720"/>
<path fill-rule="evenodd" clip-rule="evenodd" d="M31.3357 62.8204C31.6163 62.0459 32.4716 61.6455 33.2461 61.9261L38.3919 63.7907C39.1664 64.0713 39.5667 64.9267 39.2861 65.7012C39.0055 66.4757 38.1502 66.8761 37.3757 66.5955L32.2299 64.731C31.4555 64.4503 31.0551 63.5949 31.3357 62.8204Z" fill="#047720"/>
<path fill-rule="evenodd" clip-rule="evenodd" d="M20.0734 58.7199C20.3532 57.945 21.2081 57.5437 21.9829 57.8235L28.6948 60.2474C29.4695 60.5272 29.8708 61.3822 29.591 62.157C29.3113 62.9319 28.4564 63.3332 27.6816 63.0534L20.9697 60.6294C20.1949 60.3496 19.7937 59.4947 20.0734 58.7199Z" fill="#047720"/>
<path fill-rule="evenodd" clip-rule="evenodd" d="M37.6082 76.6841C37.7494 75.8725 38.5217 75.329 39.3333 75.4701L44.479 76.3651C45.2906 76.5063 45.8341 77.2786 45.6929 78.0903C45.5518 78.9019 44.7795 79.4454 43.9679 79.3043L38.8221 78.4093C38.0106 78.2681 37.4671 77.4957 37.6082 76.6841Z" fill="#047720"/>
<path fill-rule="evenodd" clip-rule="evenodd" d="M28.1007 75.0047C28.2425 74.1932 29.0153 73.6504 29.8268 73.7922L35.159 74.7245C35.9704 74.8664 36.5132 75.6393 36.3713 76.4508C36.2295 77.2623 35.4567 77.8051 34.6452 77.6632L29.313 76.731C28.5016 76.5891 27.9588 75.8162 28.1007 75.0047Z" fill="#047720"/>
<path fill-rule="evenodd" clip-rule="evenodd" d="M16.2803 72.9168C16.422 72.1052 17.1947 71.5622 18.0061 71.7039L25.0536 72.9345C25.8651 73.0762 26.408 73.849 26.2663 74.6605C26.1247 75.472 25.352 76.0151 24.5405 75.8734L17.493 74.6428C16.6816 74.5011 16.1386 73.7283 16.2803 72.9168Z" fill="#047720"/>
<path fill-rule="evenodd" clip-rule="evenodd" d="M36.6523 87.5676C36.6523 86.7438 37.3201 86.076 38.1439 86.076H43.3642C44.188 86.076 44.8557 86.7438 44.8557 87.5676C44.8557 88.3914 44.188 89.0593 43.3642 89.0593H38.1439C37.3201 89.0593 36.6523 88.3914 36.6523 87.5676Z" fill="#047720"/>
<path fill-rule="evenodd" clip-rule="evenodd" d="M26.9961 87.5676C26.9961 86.7438 27.6639 86.076 28.4876 86.076H33.9317C34.7554 86.076 35.4232 86.7438 35.4232 87.5676C35.4232 88.3914 34.7554 89.0593 33.9317 89.0593H28.4876C27.6639 89.0593 26.9961 88.3914 26.9961 87.5676Z" fill="#047720"/>
<path fill-rule="evenodd" clip-rule="evenodd" d="M14.9883 87.5676C14.9883 86.7438 15.6561 86.076 16.4798 86.076H23.6391C24.4629 86.076 25.1307 86.7438 25.1307 87.5676C25.1307 88.3914 24.4629 89.0593 23.6391 89.0593H16.4798C15.6561 89.0593 14.9883 88.3914 14.9883 87.5676Z" fill="#047720"/>
<path fill-rule="evenodd" clip-rule="evenodd" d="M45.6929 97.0454C45.8341 97.857 45.2906 98.6294 44.479 98.7705L39.3333 99.6655C38.5217 99.8067 37.7494 99.2632 37.6082 98.4515C37.4671 97.6399 38.0106 96.8675 38.8221 96.7264L43.9679 95.8314C44.7795 95.6902 45.5518 96.2338 45.6929 97.0454Z" fill="#047720"/>
<path fill-rule="evenodd" clip-rule="evenodd" d="M36.3713 98.6849C36.5132 99.4964 35.9704 100.269 35.159 100.411L29.8268 101.343C29.0153 101.485 28.2425 100.942 28.1007 100.131C27.9588 99.3194 28.5016 98.5466 29.313 98.4047L34.6452 97.4724C35.4567 97.3306 36.2295 97.8734 36.3713 98.6849Z" fill="#047720"/>
<path fill-rule="evenodd" clip-rule="evenodd" d="M26.2663 100.475C26.408 101.287 25.8651 102.059 25.0536 102.201L18.0061 103.432C17.1947 103.573 16.422 103.03 16.2803 102.219C16.1386 101.407 16.6816 100.635 17.493 100.493L24.5405 99.2623C25.352 99.1206 26.1247 99.6637 26.2663 100.475Z" fill="#047720"/>
<path fill-rule="evenodd" clip-rule="evenodd" d="M48.1594 106.225C48.441 107 48.0416 107.856 47.2674 108.137L42.3454 109.927C41.5713 110.209 40.7155 109.809 40.434 109.035C40.1524 108.261 40.5518 107.405 41.326 107.123L46.248 105.333C47.0221 105.052 47.8779 105.451 48.1594 106.225Z" fill="#047720"/>
<path fill-rule="evenodd" clip-rule="evenodd" d="M39.2861 109.472C39.5667 110.246 39.1664 111.102 38.3919 111.382L33.2461 113.247C32.4716 113.528 31.6163 113.127 31.3357 112.353C31.0551 111.578 31.4555 110.723 32.2299 110.442L37.3757 108.577C38.1502 108.297 39.0055 108.697 39.2861 109.472Z" fill="#047720"/>
<path fill-rule="evenodd" clip-rule="evenodd" d="M29.5885 112.971C29.8721 113.745 29.475 114.602 28.7016 114.885L21.9898 117.347C21.2164 117.63 20.3595 117.233 20.0759 116.46C19.7924 115.686 20.1894 114.829 20.9628 114.546L27.6747 112.084C28.4481 111.801 29.305 112.198 29.5885 112.971Z" fill="#047720"/>
<path fill-rule="evenodd" clip-rule="evenodd" d="M52.1502 114.827C52.5626 115.54 52.319 116.452 51.606 116.865L47.0941 119.475C46.3811 119.888 45.4687 119.644 45.0562 118.931C44.6437 118.218 44.8873 117.305 45.6004 116.893L50.1122 114.282C50.8252 113.87 51.7377 114.114 52.1502 114.827Z" fill="#047720"/>
<path fill-rule="evenodd" clip-rule="evenodd" d="M43.9892 119.566C44.3998 120.28 44.1536 121.192 43.4394 121.603L38.7038 124.325C37.9896 124.736 37.0779 124.489 36.6674 123.775C36.2569 123.061 36.5031 122.149 37.2172 121.739L41.9528 119.016C42.667 118.606 43.5787 118.852 43.9892 119.566Z" fill="#047720"/>
<path fill-rule="evenodd" clip-rule="evenodd" d="M35.0743 124.709C35.4867 125.422 35.243 126.334 34.5299 126.747L28.34 130.327C27.6269 130.739 26.7146 130.495 26.3022 129.782C25.8898 129.069 26.1336 128.157 26.8466 127.744L33.0365 124.164C33.7496 123.752 34.6619 123.996 35.0743 124.709Z" fill="#047720"/>
<path fill-rule="evenodd" clip-rule="evenodd" d="M158.35 66.1471C158.627 66.9232 158.222 67.7763 157.446 68.0527L152.523 69.8053C151.747 70.0817 150.894 69.6765 150.618 68.9005C150.342 68.1244 150.747 67.2712 151.523 66.9949L156.445 65.2422C157.221 64.9659 158.074 65.371 158.35 66.1471Z" fill="#047720"/>
<path fill-rule="evenodd" clip-rule="evenodd" d="M167.446 62.8204C167.727 63.5949 167.327 64.4503 166.552 64.731L161.406 66.5955C160.632 66.8761 159.776 66.4757 159.496 65.7012C159.215 64.9267 159.616 64.0713 160.39 63.7907L165.536 61.9261C166.31 61.6455 167.166 62.0459 167.446 62.8204Z" fill="#047720"/>
<path fill-rule="evenodd" clip-rule="evenodd" d="M153.724 56.2044C154.137 56.9175 153.893 57.83 153.18 58.2425L148.668 60.8529C147.955 61.2654 147.043 61.0218 146.63 60.3087C146.218 59.5956 146.462 58.6831 147.175 58.2706L151.686 55.6602C152.399 55.2477 153.312 55.4913 153.724 56.2044Z" fill="#047720"/>
<path fill-rule="evenodd" clip-rule="evenodd" d="M162.118 51.3602C162.529 52.0745 162.282 52.9863 161.568 53.3968L156.833 56.1191C156.119 56.5296 155.207 56.2834 154.796 55.5692C154.386 54.855 154.632 53.9432 155.346 53.5326L160.082 50.8104C160.796 50.3998 161.708 50.646 162.118 51.3602Z" fill="#047720"/>
<path fill-rule="evenodd" clip-rule="evenodd" d="M172.481 45.3533C172.893 46.0665 172.649 46.9789 171.936 47.3914L165.746 50.9713C165.033 51.3837 164.121 51.1399 163.708 50.4268C163.296 49.7136 163.54 48.8012 164.253 48.3888L170.443 44.8088C171.156 44.3964 172.068 44.6402 172.481 45.3533Z" fill="#047720"/>
<path fill-rule="evenodd" clip-rule="evenodd" d="M147.422 47.2669C147.952 47.8978 147.87 48.8387 147.239 49.3684L143.287 52.6873C142.656 53.217 141.715 53.135 141.185 52.5041C140.656 51.8732 140.738 50.9323 141.368 50.4026L145.321 47.0837C145.952 46.554 146.893 46.636 147.422 47.2669Z" fill="#047720"/>
<path fill-rule="evenodd" clip-rule="evenodd" d="M154.839 41.0345C155.371 41.6631 155.293 42.6044 154.665 43.1368L150.526 46.6421C149.897 47.1745 148.956 47.0964 148.424 46.4678C147.891 45.8391 147.969 44.8979 148.598 44.3655L152.737 40.8601C153.366 40.3278 154.307 40.4058 154.839 41.0345Z" fill="#047720"/>
<path fill-rule="evenodd" clip-rule="evenodd" d="M164.054 33.322C164.583 33.9538 164.499 34.8945 163.868 35.4232L158.386 40.01C157.754 40.5387 156.814 40.455 156.285 39.8232C155.757 39.1914 155.84 38.2507 156.472 37.722L161.953 33.1352C162.585 32.6066 163.526 32.6902 164.054 33.322Z" fill="#047720"/>
<path fill-rule="evenodd" clip-rule="evenodd" d="M139.71 39.5141C140.34 40.0444 140.422 40.9853 139.891 41.6158L136.535 45.6059C136.005 46.2364 135.064 46.3176 134.434 45.7873C133.803 45.257 133.722 44.316 134.252 43.6856L137.608 39.6955C138.139 39.065 139.08 38.9838 139.71 39.5141Z" fill="#047720"/>
<path fill-rule="evenodd" clip-rule="evenodd" d="M145.936 32.0922C146.567 32.6218 146.649 33.5626 146.12 34.1936L142.614 38.3702C142.085 39.0013 141.144 39.0835 140.513 38.5539C139.882 38.0243 139.8 37.0834 140.33 36.4524L143.835 32.2758C144.364 31.6448 145.305 31.5626 145.936 32.0922Z" fill="#047720"/>
<path fill-rule="evenodd" clip-rule="evenodd" d="M153.652 22.9171C154.284 23.4458 154.368 24.3865 153.839 25.0184L149.253 30.5001C148.724 31.1319 147.783 31.2156 147.152 30.6869C146.52 30.1582 146.436 29.2175 146.965 28.5857L151.551 23.1039C152.08 22.4721 153.021 22.3885 153.652 22.9171Z" fill="#047720"/>
<path fill-rule="evenodd" clip-rule="evenodd" d="M130.771 33.2487C131.484 33.6612 131.727 34.5737 131.315 35.2868L128.705 39.799C128.292 40.5121 127.38 40.7557 126.667 40.3432C125.954 39.9307 125.71 39.0182 126.123 38.3051L128.733 33.7929C129.145 33.0798 130.058 32.8362 130.771 33.2487Z" fill="#047720"/>
<path fill-rule="evenodd" clip-rule="evenodd" d="M135.578 24.8562C136.292 25.2667 136.539 26.1785 136.128 26.8928L133.406 31.6287C132.995 32.3429 132.084 32.5891 131.37 32.1786C130.655 31.7681 130.409 30.8563 130.82 30.142L133.542 25.4061C133.952 24.6918 134.864 24.4457 135.578 24.8562Z" fill="#047720"/>
<path fill-rule="evenodd" clip-rule="evenodd" d="M141.584 14.4913C142.297 14.9037 142.541 15.8161 142.128 16.5293L138.549 22.7196C138.136 23.4327 137.224 23.6765 136.511 23.2641C135.798 22.8517 135.554 21.9392 135.966 21.2261L139.546 15.0358C139.958 14.3226 140.871 14.0789 141.584 14.4913Z" fill="#047720"/>
<path fill-rule="evenodd" clip-rule="evenodd" d="M120.842 28.6271C121.615 28.9105 122.013 29.7674 121.729 30.5409L119.939 35.426C119.656 36.1995 118.799 36.5968 118.026 36.3134C117.252 36.03 116.855 35.1731 117.138 34.3996L118.928 29.5145C119.212 28.741 120.068 28.3437 120.842 28.6271Z" fill="#047720"/>
<path fill-rule="evenodd" clip-rule="evenodd" d="M124.161 19.5278C124.934 19.8103 125.333 20.6666 125.05 21.4405L123.186 26.5493C122.904 27.3232 122.047 27.7216 121.274 27.4392C120.5 27.1567 120.101 26.3004 120.384 25.5265L122.248 20.4177C122.531 19.6438 123.387 19.2454 124.161 19.5278Z" fill="#047720"/>
<path fill-rule="evenodd" clip-rule="evenodd" d="M128.263 8.26675C129.037 8.55035 129.434 9.40726 129.15 10.1807L126.689 16.8931C126.406 17.6665 125.549 18.0637 124.775 17.7801C124.002 17.4965 123.605 16.6395 123.888 15.8661L126.349 9.15371C126.633 8.38026 127.49 7.98315 128.263 8.26675Z" fill="#047720"/>
<path fill-rule="evenodd" clip-rule="evenodd" d="M110.305 25.8011C111.115 25.949 111.652 26.7259 111.505 27.5363L110.572 32.6452C110.424 33.4556 109.648 33.9927 108.837 33.8448C108.027 33.6969 107.49 32.92 107.638 32.1096L108.57 27.0007C108.718 26.1903 109.495 25.6532 110.305 25.8011Z" fill="#047720"/>
<path fill-rule="evenodd" clip-rule="evenodd" d="M111.98 16.2537C112.791 16.4001 113.329 17.176 113.183 17.9867L112.213 23.3566C112.067 24.1673 111.291 24.7058 110.481 24.5594C109.67 24.4131 109.132 23.6372 109.278 22.8265L110.247 17.4566C110.394 16.6459 111.17 16.1074 111.98 16.2537Z" fill="#047720"/>
<path fill-rule="evenodd" clip-rule="evenodd" d="M114.068 4.47024C114.879 4.61684 115.417 5.39286 115.27 6.20352L114.002 13.2142C113.856 14.0249 113.08 14.5632 112.269 14.4166C111.459 14.27 110.92 13.494 111.067 12.6833L112.335 5.6726C112.481 4.86194 113.257 4.32363 114.068 4.47024Z" fill="#047720"/>
<path fill-rule="evenodd" clip-rule="evenodd" d="M3.39453 222.076C3.39453 221.252 4.06231 220.584 4.88606 220.584H56.8657C57.6894 220.584 58.3572 221.252 58.3572 222.076C58.3572 222.9 57.6894 223.568 56.8657 223.568H4.88606C4.06231 223.568 3.39453 222.9 3.39453 222.076Z" fill="#00370C"/>
<path fill-rule="evenodd" clip-rule="evenodd" d="M61.8984 222.076C61.8984 221.252 62.5662 220.584 63.39 220.584H137.78C138.604 220.584 139.271 221.252 139.271 222.076C139.271 222.9 138.604 223.568 137.78 223.568H63.39C62.5662 223.568 61.8984 222.9 61.8984 222.076Z" fill="#00370C"/>
<path fill-rule="evenodd" clip-rule="evenodd" d="M264.148 222.076C264.148 221.252 264.816 220.584 265.64 220.584H272.389C273.213 220.584 273.881 221.252 273.881 222.076C273.881 222.9 273.213 223.568 272.389 223.568H265.64C264.816 223.568 264.148 222.9 264.148 222.076Z" fill="#00370C"/>
<path fill-rule="evenodd" clip-rule="evenodd" d="M277.387 222.076C277.387 221.252 278.054 220.584 278.878 220.584H311.17C311.994 220.584 312.661 221.252 312.661 222.076C312.661 222.9 311.994 223.568 311.17 223.568H278.878C278.054 223.568 277.387 222.9 277.387 222.076Z" fill="#00370C"/>
<path fill-rule="evenodd" clip-rule="evenodd" d="M315.27 222.076C315.27 221.252 315.937 220.584 316.761 220.584H319.185C320.009 220.584 320.676 221.252 320.676 222.076C320.676 222.9 320.009 223.568 319.185 223.568H316.761C315.937 223.568 315.27 222.9 315.27 222.076Z" fill="#00370C"/>
<path fill-rule="evenodd" clip-rule="evenodd" d="M110.499 57.8987C110.896 57.8427 111.299 57.9489 111.617 58.1933L152.485 89.6296C153.138 90.1319 153.26 91.0684 152.757 91.7214C152.255 92.3744 151.319 92.4966 150.666 91.9943L111.005 61.4865L38.7862 159.529C38.2977 160.192 37.364 160.334 36.7007 159.845C36.0375 159.357 35.8959 158.423 36.3845 157.76L109.507 58.491C109.744 58.1681 110.102 57.9547 110.499 57.8987Z" fill="#047720"/>
<path fill-rule="evenodd" clip-rule="evenodd" d="M184.987 43.7581C185.407 43.7162 185.825 43.8544 186.137 44.1382L274.809 124.687C275.418 125.241 275.464 126.184 274.91 126.794C274.356 127.404 273.413 127.449 272.803 126.895L185.355 47.4579L134.095 117.054C133.606 117.718 132.673 117.859 132.009 117.371C131.346 116.882 131.205 115.948 131.693 115.285L183.934 44.3577C184.184 44.0178 184.567 43.7999 184.987 43.7581Z" fill="#047720"/>
<path fill-rule="evenodd" clip-rule="evenodd" d="M146.2 84.7873C146.891 85.2356 147.088 86.1593 146.64 86.8504L142.165 93.7493C141.777 94.347 141.021 94.5871 140.36 94.3225L130.119 90.2257L125.94 96.5903C125.57 97.1541 124.868 97.3994 124.227 97.1885L116.114 94.5179L112.024 98.3187C111.607 98.7064 111.005 98.8227 110.474 98.6183L99.5698 94.427L91.2739 97.7176C90.6575 97.9621 89.9537 97.7702 89.5466 97.2468L85.8924 92.5481C85.3866 91.8978 85.5038 90.9607 86.154 90.4549C86.8042 89.9491 87.7413 90.0663 88.2471 90.7166L91.2143 94.5318L99.0113 91.4391C99.3595 91.301 99.7468 91.2989 100.096 91.4333L110.675 95.4998L114.729 91.7329C115.127 91.3631 115.695 91.2389 116.211 91.4088L124.074 93.9974L128.294 87.5694C128.683 86.9764 129.436 86.7396 130.095 87.0031L140.33 91.0973L144.137 85.227C144.585 84.5358 145.509 84.339 146.2 84.7873Z" fill="#047720"/>
<path fill-rule="evenodd" clip-rule="evenodd" d="M202.133 71.6657C202.46 71.1833 203.037 70.9353 203.612 71.0306L218.005 73.4172C218.818 73.5519 219.367 74.32 219.232 75.1327C219.098 75.9454 218.33 76.495 217.517 76.3603L204.067 74.13L199.047 81.5426C198.596 82.2089 197.697 82.3971 197.016 81.968L189.177 77.0255L178.198 82.9511C177.474 83.342 176.57 83.0724 176.178 82.3486L172.58 75.702L162.35 78.0577C161.547 78.2426 160.747 77.7416 160.562 76.9388C160.377 76.136 160.878 75.3354 161.681 75.1505L173.016 72.5402C173.67 72.3897 174.343 72.6938 174.662 73.2835L178.092 79.6183L188.527 73.9863C189.001 73.7306 189.576 73.75 190.031 74.0371L197.386 78.6745L202.133 71.6657Z" fill="#047720"/>
<path fill-rule="evenodd" clip-rule="evenodd" d="M215.376 40.32C215.376 31.9634 222.122 25.2172 230.478 25.2172C236.109 25.2172 241.062 28.335 243.639 32.9321C244.422 32.7649 245.234 32.6754 246.064 32.6754C250.485 32.6754 254.347 35.1996 256.223 38.8939C256.544 38.8511 256.875 38.8284 257.214 38.8284C261.356 38.8284 264.746 42.2184 264.746 46.3611C264.746 47.399 264.512 48.4156 264.144 49.2893C263.911 49.8424 263.37 50.2021 262.77 50.2021H209.671C209.182 50.2021 208.723 49.9619 208.445 49.5593C208.166 49.1567 208.103 48.6431 208.275 48.1849C209.49 44.9588 212.111 42.4713 215.422 41.4292C215.393 41.064 215.376 40.6939 215.376 40.32ZM230.478 28.2004C223.77 28.2004 218.359 33.611 218.359 40.32C218.359 40.9684 218.424 41.6361 218.529 42.3362C218.649 43.1315 218.116 43.8781 217.325 44.0243C215.202 44.4166 213.387 45.5794 212.168 47.2188H261.675C261.732 46.9354 261.763 46.6459 261.763 46.3611C261.763 43.8661 259.708 41.8116 257.214 41.8116C256.706 41.8116 256.232 41.8965 255.821 42.0334C255.056 42.2885 254.226 41.8889 253.949 41.1314C252.78 37.9415 249.677 35.6586 246.064 35.6586C245.112 35.6586 244.19 35.8174 243.329 36.1042C242.604 36.3459 241.814 36.0003 241.499 35.3039C239.607 31.1218 235.355 28.2004 230.478 28.2004Z" fill="#047720"/>
<path fill-rule="evenodd" clip-rule="evenodd" d="M271.456 66.1626C271.456 59.6706 276.71 54.416 283.202 54.416C289.283 54.416 294.278 59.027 294.885 64.9468C295.041 64.9371 295.198 64.932 295.357 64.932C299.718 64.932 303.3 68.4656 303.3 72.875V73.0614C303.3 73.8853 302.632 74.5531 301.808 74.5531H267.913C267.09 74.5531 266.422 73.8853 266.422 73.0614V72.9125C266.422 69.8025 268.589 67.2286 271.461 66.5572C271.457 66.4254 271.456 66.2939 271.456 66.1626ZM283.202 57.3992C278.357 57.3992 274.439 61.3182 274.439 66.1626C274.439 66.6977 274.472 67.1527 274.559 67.5855C274.647 68.0237 274.533 68.4781 274.25 68.8237C273.967 69.1693 273.543 69.3696 273.096 69.3696H272.947C271.475 69.3696 270.2 70.2754 269.668 71.5698H300.143C299.569 69.4578 297.634 67.9153 295.357 67.9153C294.855 67.9153 294.371 67.9987 293.901 68.1457C293.448 68.2873 292.955 68.2048 292.572 67.9238C292.19 67.6427 291.964 67.1965 291.964 66.722V66.1626C291.964 61.3182 288.046 57.3992 283.202 57.3992Z" fill="#047720"/>
<path d="M103.998 222.076C94.5642 222.076 86.8828 214.394 86.8828 204.96C86.8828 195.525 94.5642 187.843 103.998 187.843C113.432 187.843 121.113 195.525 121.113 204.96C121.113 214.394 113.432 222.076 103.998 222.076Z" fill="#FE746B"/>
<path fill-rule="evenodd" clip-rule="evenodd" d="M103.997 189.335C95.3872 189.335 88.3737 196.349 88.3737 204.96C88.3737 213.57 95.3873 220.585 103.997 220.585C112.608 220.585 119.621 213.57 119.621 204.96C119.621 196.349 112.608 189.335 103.997 189.335ZM85.3906 204.96C85.3906 194.701 93.7398 186.351 103.997 186.351C114.255 186.351 122.604 194.701 122.604 204.96C122.604 215.218 114.255 223.568 103.997 223.568C93.7398 223.568 85.3906 215.218 85.3906 204.96Z" fill="#00370C"/>
<path d="M103.996 213.909C99.074 213.909 95.0469 209.882 95.0469 204.96C95.0469 200.037 99.074 196.01 103.996 196.01C108.918 196.01 112.945 200.037 112.945 204.96C112.945 209.882 108.918 213.909 103.996 213.909Z" fill="#00EA34"/>
<path fill-rule="evenodd" clip-rule="evenodd" d="M103.995 197.501C99.8971 197.501 96.5377 200.861 96.5377 204.96C96.5377 209.058 99.8971 212.418 103.995 212.418C108.094 212.418 111.453 209.058 111.453 204.96C111.453 200.861 108.094 197.501 103.995 197.501ZM93.5547 204.96C93.5547 199.213 98.2496 194.518 103.995 194.518C109.741 194.518 114.436 199.213 114.436 204.96C114.436 210.706 109.741 215.401 103.995 215.401C98.2496 215.401 93.5547 210.706 93.5547 204.96Z" fill="#00370C"/>
<path d="M103.997 207.906C102.356 207.906 101.051 206.563 101.051 204.96C101.051 203.319 102.393 202.014 103.997 202.014C105.637 202.014 106.942 203.356 106.942 204.96C106.942 206.563 105.637 207.906 103.997 207.906Z" fill="#00EA34"/>
<path fill-rule="evenodd" clip-rule="evenodd" d="M103.996 203.505C103.204 203.505 102.542 204.155 102.542 204.96C102.542 205.752 103.191 206.414 103.996 206.414C104.801 206.414 105.45 205.752 105.45 204.96C105.45 204.168 104.801 203.505 103.996 203.505ZM99.5586 204.96C99.5586 202.483 101.581 200.522 103.996 200.522C106.473 200.522 108.433 202.545 108.433 204.96C108.433 207.375 106.473 209.397 103.996 209.397C101.519 209.397 99.5586 207.375 99.5586 204.96Z" fill="#00370C"/>
<path d="M240.842 152.864L237.337 139.551C235.958 134.219 231.408 130.34 225.927 129.744C210.266 128.066 191.286 127.096 169.137 127.096C143.781 127.096 104.815 129.035 93.1068 130.378C90.9813 130.601 89.1542 131.981 88.2966 133.958L81.2491 150.44C78.0051 156.258 76.0288 162.672 75.4695 169.309L75.3203 206.377L83.1881 206.526C83.1508 206.004 83.1135 205.482 83.1135 204.96C83.1135 193.437 92.4356 184.114 103.958 184.114C115.48 184.114 124.802 193.437 124.802 204.96C124.802 205.631 124.764 206.302 124.69 206.936L179.503 207.607C179.392 206.75 179.317 205.855 179.317 204.96C179.317 193.437 188.639 184.114 200.161 184.114C211.683 184.114 221.005 193.437 221.005 204.96C221.005 206.004 220.93 207.011 220.781 208.017L242.893 208.241V169.608C243.005 163.977 242.259 158.346 240.842 152.864Z" fill="#047720"/>
<g opacity="0.36">
<path opacity="0.36" d="M79.4966 206.377L79.6457 169.309C80.2051 162.672 82.1813 156.258 85.4254 150.44L92.4729 133.958C93.3305 131.981 95.1576 130.639 97.283 130.378C108.656 129.072 145.683 127.208 171.039 127.096C170.405 127.096 169.771 127.096 169.137 127.096C143.781 127.096 104.815 129.035 93.1068 130.378C90.9813 130.601 89.1542 131.981 88.2966 133.958L81.2491 150.44C78.0051 156.258 76.0288 162.672 75.4695 169.309L75.3203 206.377L83.1881 206.526C83.1881 206.489 83.1881 206.489 83.1881 206.451L79.4966 206.377Z" fill="#047720"/>
<path opacity="0.36" d="M225.033 208.018C225.182 207.011 225.256 206.004 225.256 204.96C225.256 193.437 215.934 184.114 204.412 184.114C203.704 184.114 203.033 184.151 202.324 184.226C212.877 185.27 221.08 194.145 221.08 204.96C221.08 206.004 221.006 207.011 220.856 208.018L242.968 208.241V208.204L225.033 208.018Z" fill="#047720"/>
<path opacity="0.36" d="M128.902 206.899C128.977 206.265 129.014 205.594 129.014 204.922C129.014 193.399 119.692 184.077 108.17 184.077C107.462 184.077 106.791 184.114 106.082 184.189C116.635 185.233 124.838 194.108 124.838 204.922C124.838 205.594 124.801 206.265 124.726 206.899L179.54 207.57V207.533L128.902 206.899Z" fill="#047720"/>
</g>
<path opacity="0.36" d="M128.981 203.543H178.798V198.583H128.012C128.534 200.186 128.832 201.827 128.981 203.543Z" fill="#047720"/>
<g opacity="0.25">
<path opacity="0.25" d="M241.589 152.491L238.084 139.178C236.704 133.846 232.155 129.967 226.673 129.371C211.012 127.693 192.033 126.723 169.884 126.723C144.528 126.723 105.562 128.662 93.8531 130.005C92.026 130.228 90.3853 131.273 89.4531 132.839C89.4531 132.839 89.4531 132.205 89.4904 132.205C101.199 130.862 140.165 129.557 165.521 129.557C187.707 129.557 206.65 130.527 222.311 132.205C227.792 132.802 232.304 136.68 233.721 142.012L237.226 155.325C238.68 160.807 239.389 166.438 239.389 172.069V207.831L243.789 207.868V169.235C243.751 163.604 243.006 157.973 241.589 152.491Z" fill="#047720"/>
</g>
<path fill-rule="evenodd" clip-rule="evenodd" d="M92.9466 128.895C104.74 127.544 143.758 125.604 169.141 125.604C191.331 125.604 210.365 126.576 226.089 128.261L226.092 128.261C232.178 128.923 237.244 133.233 238.783 139.173C238.784 139.175 238.784 139.176 238.784 139.178L242.288 152.484L242.29 152.491C243.735 158.084 244.501 163.846 244.388 169.622V208.241C244.388 208.64 244.229 209.021 243.946 209.301C243.663 209.582 243.28 209.737 242.881 209.733L220.769 209.509C220.338 209.505 219.93 209.314 219.65 208.986C219.37 208.658 219.246 208.225 219.309 207.799C219.448 206.865 219.517 205.931 219.517 204.96C219.517 194.261 210.863 185.606 200.164 185.606C189.466 185.606 180.812 194.261 180.812 204.96C180.812 205.774 180.88 206.602 180.986 207.414C181.042 207.843 180.909 208.275 180.621 208.598C180.334 208.922 179.921 209.104 179.488 209.099L124.675 208.428C124.252 208.422 123.851 208.238 123.572 207.92C123.293 207.603 123.162 207.182 123.212 206.762C123.279 206.19 123.313 205.577 123.313 204.96C123.313 194.261 114.659 185.606 103.961 185.606C93.2626 185.606 84.6083 194.261 84.6083 204.96C84.6083 205.42 84.6412 205.889 84.6791 206.42C84.7089 206.838 84.5617 207.249 84.2733 207.553C83.9849 207.857 83.582 208.025 83.1631 208.017L75.2953 207.868C74.4804 207.853 73.8288 207.186 73.832 206.371L73.9812 169.304C73.9814 169.264 73.9831 169.224 73.9864 169.184C74.5616 162.359 76.5881 155.765 79.9114 149.783L86.9284 133.371L86.9316 133.364C87.9944 130.914 90.27 129.18 92.9466 128.895ZM169.141 128.588C143.816 128.588 104.911 130.526 93.2799 131.86L93.2661 131.861C91.6963 132.026 90.3216 133.049 89.6696 134.548C89.6691 134.549 89.6686 134.55 89.6681 134.551L82.6238 151.027C82.6033 151.075 82.5804 151.121 82.555 151.167C79.4225 156.784 77.512 162.973 76.964 169.376L76.821 204.913L81.6253 205.004C81.6253 204.989 81.6252 204.975 81.6252 204.96C81.6252 192.613 91.6151 182.622 103.961 182.622C116.307 182.622 126.296 192.613 126.296 204.96C126.296 205.128 126.294 205.296 126.29 205.464L177.863 206.095C177.841 205.721 177.829 205.341 177.829 204.96C177.829 192.613 187.818 182.622 200.164 182.622C212.51 182.622 222.5 192.613 222.5 204.96C222.5 205.494 222.482 206.021 222.445 206.543L241.405 206.734V169.608C241.405 169.598 241.405 169.588 241.405 169.578C241.514 164.099 240.789 158.605 239.402 153.24C239.402 153.239 239.402 153.238 239.402 153.238L235.898 139.931L235.897 139.925C234.675 135.203 230.645 131.758 225.77 131.227C210.173 129.556 191.248 128.588 169.141 128.588Z" fill="#00370C"/>
<path d="M200.236 222.076C190.802 222.076 183.121 214.394 183.121 204.96C183.121 195.525 190.802 187.843 200.236 187.843C209.67 187.843 217.352 195.525 217.352 204.96C217.352 214.394 209.67 222.076 200.236 222.076Z" fill="#FE746B"/>
<path fill-rule="evenodd" clip-rule="evenodd" d="M200.236 189.335C191.626 189.335 184.612 196.349 184.612 204.96C184.612 213.57 191.626 220.585 200.236 220.585C208.846 220.585 215.859 213.57 215.859 204.96C215.859 196.349 208.846 189.335 200.236 189.335ZM181.629 204.96C181.629 194.701 189.978 186.351 200.236 186.351C210.493 186.351 218.842 194.701 218.842 204.96C218.842 215.218 210.493 223.568 200.236 223.568C189.978 223.568 181.629 215.218 181.629 204.96Z" fill="#00370C"/>
<path d="M200.238 213.909C195.316 213.909 191.289 209.882 191.289 204.96C191.289 200.037 195.316 196.01 200.238 196.01C205.16 196.01 209.187 200.037 209.187 204.96C209.187 209.882 205.16 213.909 200.238 213.909Z" fill="#00EA34"/>
<path fill-rule="evenodd" clip-rule="evenodd" d="M200.238 197.501C196.139 197.501 192.78 200.861 192.78 204.96C192.78 209.058 196.139 212.418 200.238 212.418C204.336 212.418 207.695 209.058 207.695 204.96C207.695 200.861 204.336 197.501 200.238 197.501ZM189.797 204.96C189.797 199.213 194.492 194.518 200.238 194.518C205.983 194.518 210.678 199.213 210.678 204.96C210.678 210.706 205.983 215.401 200.238 215.401C194.492 215.401 189.797 210.706 189.797 204.96Z" fill="#00370C"/>
<path d="M200.239 207.906C198.598 207.906 197.293 206.563 197.293 204.96C197.293 203.319 198.635 202.014 200.239 202.014C201.879 202.014 203.185 203.356 203.185 204.96C203.185 206.563 201.879 207.906 200.239 207.906Z" fill="#00EA34"/>
<path fill-rule="evenodd" clip-rule="evenodd" d="M200.238 203.505C199.446 203.505 198.784 204.155 198.784 204.96C198.784 205.752 199.433 206.414 200.238 206.414C201.043 206.414 201.692 205.752 201.692 204.96C201.692 204.168 201.043 203.505 200.238 203.505ZM195.801 204.96C195.801 202.483 197.823 200.522 200.238 200.522C202.715 200.522 204.675 202.545 204.675 204.96C204.675 207.375 202.715 209.397 200.238 209.397C197.761 209.397 195.801 207.375 195.801 204.96Z" fill="#00370C"/>
<path d="M75.323 209.696H71.2586C69.5807 209.696 68.2383 208.353 68.2383 206.675V194.63C68.2383 192.952 69.5807 191.609 71.2586 191.609H75.323V209.696Z" fill="#FFFEFF"/>
<path fill-rule="evenodd" clip-rule="evenodd" d="M71.258 193.101C70.4037 193.101 69.7291 193.776 69.7291 194.63V206.675C69.7291 207.529 70.4037 208.204 71.258 208.204H73.8308V193.101H71.258ZM66.7461 194.63C66.7461 192.128 68.7563 190.118 71.258 190.118H75.3224C76.1461 190.118 76.8139 190.786 76.8139 191.609V209.696C76.8139 210.519 76.1461 211.187 75.3224 211.187H71.258C68.7563 211.187 66.7461 209.177 66.7461 206.675V194.63Z" fill="#00370C"/>
<path d="M75.9191 186.762H74.4276C73.309 186.762 72.4141 185.867 72.4141 184.748V175.5C72.4141 174.381 73.309 173.486 74.4276 173.486H75.9191C77.0378 173.486 77.9327 174.381 77.9327 175.5V184.748C77.9327 185.867 77.0378 186.762 75.9191 186.762Z" fill="#FFFEFF"/>
<path fill-rule="evenodd" clip-rule="evenodd" d="M74.427 174.978C74.132 174.978 73.9049 175.205 73.9049 175.5V184.748C73.9049 185.043 74.1321 185.27 74.427 185.27H75.9185C76.2134 185.27 76.4405 185.043 76.4405 184.748V175.5C76.4405 175.205 76.2134 174.978 75.9185 174.978H74.427ZM70.9219 175.5C70.9219 173.557 72.4846 171.994 74.427 171.994H75.9185C77.8609 171.994 79.4236 173.557 79.4236 175.5V184.748C79.4236 186.69 77.8609 188.253 75.9185 188.253H74.427C72.4846 188.253 70.9219 186.69 70.9219 184.748V175.5Z" fill="#00370C"/>
<path d="M245.839 212.567H229.805C227.941 212.567 226.449 211.075 226.449 209.211V206.6C226.449 204.736 227.941 203.244 229.805 203.244H245.839C247.703 203.244 249.195 204.736 249.195 206.6V209.211C249.195 211.038 247.666 212.567 245.839 212.567Z" fill="#FFFEFF"/>
<path d="M230.031 208.95C230.031 208.018 230.814 207.234 231.746 207.234H249.16V206.6C249.16 204.736 247.668 203.244 245.804 203.244H229.77C227.906 203.244 226.414 204.736 226.414 206.6V209.211C226.414 211.075 227.906 212.567 229.77 212.567H230.031V208.95Z" fill="#4A4A4A"/>
<path fill-rule="evenodd" clip-rule="evenodd" d="M229.808 204.736C228.768 204.736 227.944 205.56 227.944 206.6V209.211C227.944 210.251 228.768 211.075 229.808 211.075H245.842C246.846 211.075 247.707 210.214 247.707 209.211V206.6C247.707 205.56 246.883 204.736 245.842 204.736H229.808ZM224.961 206.6C224.961 203.912 227.12 201.753 229.808 201.753H245.842C248.53 201.753 250.69 203.912 250.69 206.6V209.211C250.69 211.862 248.493 214.059 245.842 214.059H229.808C227.12 214.059 224.961 211.899 224.961 209.211V206.6Z" fill="#00370C"/>
<path d="M218.696 161.516H201.431C199.455 161.516 197.852 159.912 197.852 157.936V140.521C197.852 138.544 199.455 136.941 201.431 136.941H211.909C216.048 136.941 219.553 139.961 220.187 144.063L222.201 157.376C222.574 159.577 220.896 161.516 218.696 161.516Z" fill="#00EA34"/>
<path opacity="0.56" d="M205.16 144.809C205.16 142.833 206.763 141.229 208.74 141.229H219.218C217.763 138.656 215.004 136.978 211.909 136.978H201.431C199.455 136.978 197.852 138.582 197.852 140.558V157.973C197.852 159.949 199.455 161.553 201.431 161.553H205.16V144.809Z" fill="#00EA34"/>
<path fill-rule="evenodd" clip-rule="evenodd" d="M201.431 138.432C200.278 138.432 199.342 139.368 199.342 140.521V157.936C199.342 159.088 200.278 160.024 201.431 160.024H218.695C219.986 160.024 220.946 158.901 220.73 157.626C220.728 157.617 220.727 157.608 220.725 157.599L218.712 144.291C218.712 144.291 218.712 144.29 218.712 144.289C218.189 140.91 215.306 138.432 211.909 138.432H201.431ZM196.359 140.521C196.359 137.721 198.631 135.449 201.431 135.449H211.909C216.788 135.449 220.915 139.012 221.661 143.836L221.661 143.84L223.673 157.141C224.193 160.26 221.799 163.007 218.695 163.007H201.431C198.631 163.007 196.359 160.736 196.359 157.936V140.521Z" fill="#00370C"/>
<path d="M186.368 161.143H148.259C146.283 161.143 144.68 159.539 144.68 157.563V140.148C144.68 138.172 146.283 136.568 148.259 136.568H186.368C188.344 136.568 189.947 138.172 189.947 140.148V157.563C189.91 159.539 188.344 161.143 186.368 161.143Z" fill="#00EA34"/>
<path opacity="0.56" d="M151.578 143.989C151.578 142.012 153.181 140.409 155.158 140.409H189.91V140.148C189.91 138.172 188.307 136.568 186.331 136.568H148.259C146.283 136.568 144.68 138.172 144.68 140.148V157.563C144.68 159.539 146.283 161.143 148.259 161.143H151.615V143.989H151.578Z" fill="#00EA34"/>
<path fill-rule="evenodd" clip-rule="evenodd" d="M148.259 138.06C147.106 138.06 146.171 138.995 146.171 140.148V157.563C146.171 158.715 147.106 159.651 148.259 159.651H186.367C187.491 159.651 188.427 158.741 188.455 157.547V140.148C188.455 138.995 187.52 138.06 186.367 138.06H148.259ZM143.188 140.148C143.188 137.348 145.459 135.076 148.259 135.076H186.367C189.167 135.076 191.438 137.348 191.438 140.148V157.563C191.438 157.572 191.438 157.582 191.438 157.591C191.386 160.343 189.192 162.634 186.367 162.634H148.259C145.459 162.634 143.188 160.363 143.188 157.563V140.148Z" fill="#00370C"/>
<path d="M127.34 161.516H91.4316C89.418 161.516 87.9638 159.278 88.5231 157.003L92.6621 139.589C93.035 138.06 94.2282 136.978 95.5705 136.978H127.34C129.018 136.978 130.36 138.582 130.36 140.558V157.973C130.398 159.912 129.018 161.516 127.34 161.516Z" fill="#00EA34"/>
<path opacity="0.56" d="M95.2349 160.658L99.3738 143.243C99.7467 141.714 100.94 140.633 102.282 140.633H130.36V140.521C130.36 138.544 129.018 136.941 127.34 136.941H95.5705C94.2281 136.941 93.0349 138.022 92.662 139.551L88.523 156.966C88.001 159.241 89.4179 161.478 91.4315 161.478H95.123C95.1603 161.217 95.1976 160.956 95.2349 160.658Z" fill="#00EA34"/>
<path fill-rule="evenodd" clip-rule="evenodd" d="M94.1114 139.938L89.9736 157.348L89.9708 157.36C89.5702 158.989 90.6678 160.024 91.431 160.024H127.339C127.995 160.024 128.894 159.306 128.869 158.002C128.868 157.992 128.868 157.983 128.868 157.973V140.558C128.868 139.154 127.963 138.47 127.339 138.47H95.5699C95.0779 138.47 94.3641 138.908 94.1114 139.938ZM91.2124 139.235C91.7064 137.21 93.3778 135.487 95.5699 135.487H127.339C130.072 135.487 131.851 138.009 131.851 140.558V157.96C131.893 160.528 130.034 163.007 127.339 163.007H91.431C88.1693 163.007 86.3586 159.572 87.0726 156.653L91.2104 139.244L91.2124 139.235Z" fill="#00370C"/>
<path opacity="0.48" fill-rule="evenodd" clip-rule="evenodd" d="M130.656 128.849C130.656 128.643 130.823 128.476 131.029 128.476C135.486 128.476 139.083 132.074 139.083 136.531V207.085C139.083 207.291 138.916 207.458 138.71 207.458C138.505 207.458 138.338 207.291 138.338 207.085V136.531C138.338 132.485 135.074 129.222 131.029 129.222C130.823 129.222 130.656 129.055 130.656 128.849Z" fill="#00370C"/>
<path fill-rule="evenodd" clip-rule="evenodd" d="M119.621 170.466C119.621 169.642 120.289 168.974 121.113 168.974H132.299C133.123 168.974 133.791 169.642 133.791 170.466C133.791 171.289 133.123 171.957 132.299 171.957H121.113C120.289 171.957 119.621 171.289 119.621 170.466Z" fill="#00370C"/>
<path fill-rule="evenodd" clip-rule="evenodd" d="M177.68 169.608C177.68 168.784 178.347 168.116 179.171 168.116H188.717C189.541 168.116 190.208 168.784 190.208 169.608C190.208 170.432 189.541 171.099 188.717 171.099H179.171C178.347 171.099 177.68 170.432 177.68 169.608Z" fill="#00370C"/>
<path d="M243.978 195.525H242.523V159.912H243.978C246.439 159.912 248.452 161.926 248.452 164.387V191.05C248.452 193.511 246.439 195.525 243.978 195.525Z" fill="#4A4A4A"/>
<path fill-rule="evenodd" clip-rule="evenodd" d="M241.031 159.912C241.031 159.088 241.699 158.421 242.523 158.421H243.977C247.262 158.421 249.943 161.102 249.943 164.387V191.05C249.943 194.335 247.262 197.017 243.977 197.017H242.523C241.699 197.017 241.031 196.349 241.031 195.525V159.912ZM244.014 161.404V194.033C245.635 194.013 246.96 192.675 246.96 191.05V164.387C246.96 162.762 245.635 161.424 244.014 161.404Z" fill="#00370C"/>
<path fill-rule="evenodd" clip-rule="evenodd" d="M224.961 140.707C224.961 139.883 225.629 139.216 226.452 139.216H230.964C231.788 139.216 232.456 139.883 232.456 140.707C232.456 141.531 231.788 142.199 230.964 142.199H226.452C225.629 142.199 224.961 141.531 224.961 140.707Z" fill="#00370C"/>
<path fill-rule="evenodd" clip-rule="evenodd" d="M226.824 147.121C226.824 146.297 227.492 145.63 228.316 145.63H232.828C233.651 145.63 234.319 146.297 234.319 147.121C234.319 147.945 233.651 148.613 232.828 148.613H228.316C227.492 148.613 226.824 147.945 226.824 147.121Z" fill="#00370C"/>
<path fill-rule="evenodd" clip-rule="evenodd" d="M228.578 153.498C228.578 152.674 229.246 152.006 230.07 152.006H234.582C235.405 152.006 236.073 152.674 236.073 153.498C236.073 154.322 235.405 154.99 234.582 154.99H230.07C229.246 154.99 228.578 154.322 228.578 153.498Z" fill="#00370C"/>
<path fill-rule="evenodd" clip-rule="evenodd" d="M229.32 159.912C229.32 159.088 229.988 158.421 230.812 158.421H235.361C236.185 158.421 236.853 159.088 236.853 159.912C236.853 160.736 236.185 161.404 235.361 161.404H230.812C229.988 161.404 229.32 160.736 229.32 159.912Z" fill="#00370C"/>
<path d="M176.299 209.397H128.086C126.072 209.397 124.469 207.794 124.469 205.78C124.469 203.766 126.072 202.163 128.086 202.163H176.299C178.313 202.163 179.916 203.766 179.916 205.78C179.916 207.756 178.313 209.397 176.299 209.397Z" fill="#FFFEFF"/>
<path d="M176.299 209.397H128.086C126.072 209.397 124.469 207.794 124.469 205.78C124.469 203.766 126.072 202.163 128.086 202.163H176.299C178.313 202.163 179.916 203.766 179.916 205.78C179.916 207.756 178.313 209.397 176.299 209.397Z" fill="#FFFEFF"/>
<path d="M179.916 202.163H124.469V205.78H179.916V202.163Z" fill="#4A4A4A"/>
<path fill-rule="evenodd" clip-rule="evenodd" d="M128.085 203.654C126.895 203.654 125.96 204.59 125.96 205.78C125.96 206.97 126.895 207.906 128.085 207.906H176.299C177.478 207.906 178.424 206.943 178.424 205.78C178.424 204.59 177.488 203.654 176.299 203.654H128.085ZM122.977 205.78C122.977 202.942 125.248 200.671 128.085 200.671H176.299C179.136 200.671 181.407 202.942 181.407 205.78C181.407 208.57 179.146 210.889 176.299 210.889H128.085C125.248 210.889 122.977 208.618 122.977 205.78Z" fill="#00370C"/>
<path fill-rule="evenodd" clip-rule="evenodd" d="M106.35 144.392C106.642 144.683 106.643 145.155 106.352 145.447L99.044 152.793C98.7535 153.085 98.2813 153.087 97.9893 152.796C97.6973 152.506 97.6961 152.033 97.9866 151.741L105.295 144.395C105.586 144.103 106.058 144.102 106.35 144.392Z" fill="#00370C"/>
<path fill-rule="evenodd" clip-rule="evenodd" d="M115.076 142.49C115.368 142.78 115.37 143.252 115.08 143.545L105.236 153.464C104.946 153.756 104.474 153.758 104.181 153.468C103.889 153.178 103.887 152.706 104.177 152.413L114.021 142.494C114.312 142.202 114.784 142.2 115.076 142.49Z" fill="#00370C"/>
<path fill-rule="evenodd" clip-rule="evenodd" d="M163.099 143.495C163.392 143.784 163.396 144.256 163.107 144.55L155.836 151.933C155.547 152.227 155.075 152.23 154.781 151.941C154.488 151.652 154.484 151.18 154.773 150.886L162.044 143.503C162.333 143.209 162.805 143.206 163.099 143.495Z" fill="#00370C"/>
<path fill-rule="evenodd" clip-rule="evenodd" d="M171.865 141.632C172.158 141.922 172.159 142.395 171.869 142.687L162.025 152.606C161.735 152.899 161.263 152.9 160.97 152.61C160.678 152.32 160.676 151.848 160.966 151.556L170.811 141.636C171.101 141.344 171.573 141.342 171.865 141.632Z" fill="#00370C"/>
<path fill-rule="evenodd" clip-rule="evenodd" d="M209.113 145.509C209.406 145.799 209.409 146.271 209.12 146.564L203.116 152.642C202.827 152.935 202.355 152.938 202.062 152.649C201.769 152.359 201.766 151.887 202.055 151.594L208.058 145.516C208.348 145.223 208.82 145.22 209.113 145.509Z" fill="#00370C"/>
<path fill-rule="evenodd" clip-rule="evenodd" d="M216.31 143.943C216.603 144.232 216.607 144.704 216.317 144.997L208.226 153.201C207.937 153.495 207.465 153.498 207.171 153.209C206.878 152.919 206.875 152.447 207.164 152.154L215.256 143.95C215.545 143.657 216.017 143.653 216.31 143.943Z" fill="#00370C"/>
<path d="M263.89 171.808L294.69 98.8668C295.361 97.3006 297.598 97.3006 298.269 98.8668L329.069 171.808C332.761 180.534 324.893 189.67 313.707 189.67H279.252C268.066 189.67 260.198 180.534 263.89 171.808Z" fill="#00EA34"/>
<path d="M263.89 171.808L294.69 98.8668C295.361 97.3006 297.598 97.3006 298.269 98.8668L329.069 171.808C332.761 180.534 324.893 189.67 313.707 189.67H279.252C268.066 189.67 260.198 180.534 263.89 171.808Z" fill="#00EA34"/>
<path opacity="0.56" d="M278.952 175.239L300.915 105.094L298.305 98.8668C297.633 97.3006 295.396 97.3006 294.725 98.8668L263.925 171.808C260.233 180.534 268.101 189.67 279.288 189.67H281.898C278.616 186.911 277.349 182.324 278.952 175.239Z" fill="#00EA34"/>
<path fill-rule="evenodd" clip-rule="evenodd" d="M296.48 110.8C297.304 110.8 297.971 111.468 297.971 112.292V222.077C297.971 222.9 297.304 223.568 296.48 223.568C295.656 223.568 294.988 222.9 294.988 222.077V112.292C294.988 111.468 295.656 110.8 296.48 110.8Z" fill="#00370C"/>
<path fill-rule="evenodd" clip-rule="evenodd" d="M306.431 126.552C307 127.148 306.977 128.092 306.381 128.661L297.507 137.126C296.93 137.676 296.022 137.675 295.446 137.124L286.608 128.658C286.013 128.089 285.993 127.144 286.563 126.549C287.133 125.955 288.077 125.934 288.672 126.504L296.479 133.983L304.322 126.502C304.918 125.933 305.863 125.956 306.431 126.552Z" fill="#00370C"/>
<path fill-rule="evenodd" clip-rule="evenodd" d="M284.848 142.659C285.418 142.064 286.362 142.044 286.957 142.613L296.478 151.731L305.999 142.613C306.594 142.044 307.538 142.064 308.107 142.659C308.677 143.254 308.657 144.198 308.062 144.768L297.509 154.874C296.932 155.426 296.023 155.426 295.446 154.874L284.894 144.768C284.299 144.198 284.278 143.254 284.848 142.659Z" fill="#00370C"/>
<path fill-rule="evenodd" clip-rule="evenodd" d="M277.71 161.11C278.223 160.465 279.161 160.357 279.806 160.87L296.478 174.117L313.15 160.87C313.795 160.357 314.734 160.465 315.246 161.11C315.759 161.755 315.651 162.693 315.006 163.206L297.406 177.19C296.863 177.621 296.094 177.621 295.55 177.19L277.95 163.206C277.306 162.693 277.198 161.755 277.71 161.11Z" fill="#00370C"/>
<path fill-rule="evenodd" clip-rule="evenodd" d="M187.624 1.37763C188.207 0.795105 189.151 0.795105 189.734 1.37763L193.154 4.79779L196.574 1.37763C197.156 0.795105 198.1 0.795105 198.683 1.37763C199.265 1.96015 199.265 2.9046 198.683 3.48712L194.208 7.96204C193.626 8.54456 192.681 8.54456 192.099 7.96204L187.624 3.48712C187.042 2.9046 187.042 1.96015 187.624 1.37763Z" fill="#047720"/>
<path fill-rule="evenodd" clip-rule="evenodd" d="M220.882 7.19939C221.462 6.61446 222.406 6.61054 222.991 7.19064L226.448 10.6195L229.873 7.19501C230.455 6.61249 231.399 6.61249 231.982 7.19501C232.564 7.77753 232.564 8.72198 231.982 9.3045L227.507 13.7794C226.926 14.3602 225.985 14.3622 225.402 13.7838L220.89 9.30887C220.306 8.72877 220.302 7.78433 220.882 7.19939Z" fill="#047720"/>
<path fill-rule="evenodd" clip-rule="evenodd" d="M291.808 31.2477C292.39 30.6652 293.335 30.6652 293.917 31.2477L297.342 34.6722L300.799 31.2433C301.384 30.6632 302.328 30.6671 302.908 31.2521C303.488 31.837 303.484 32.7814 302.899 33.3615L298.387 37.8365C297.804 38.4149 296.863 38.4129 296.283 37.8321L291.808 33.3572C291.225 32.7747 291.225 31.8302 291.808 31.2477Z" fill="#047720"/>
<path fill-rule="evenodd" clip-rule="evenodd" d="M153.254 222.076C153.254 221.252 153.922 220.584 154.745 220.584H258.406C259.23 220.584 259.898 221.252 259.898 222.076C259.898 222.9 259.23 223.568 258.406 223.568H154.745C153.922 223.568 153.254 222.9 153.254 222.076Z" fill="#00370C"/>
<path fill-rule="evenodd" clip-rule="evenodd" d="M142.066 222.076C142.066 221.252 142.734 220.584 143.558 220.584H156.124C156.948 220.584 157.616 221.252 157.616 222.076C157.616 222.9 156.948 223.568 156.124 223.568H143.558C142.734 223.568 142.066 222.9 142.066 222.076Z" fill="#00370C"/>
</g>
<defs>
<clipPath id="clip0_2800_15795">
<rect width="330" height="223" fill="white" transform="translate(0 0.679688)"/>
</clipPath>
</defs>
</svg>
