<svg width="35" height="41" viewBox="0 0 35 41" fill="none" xmlns="http://www.w3.org/2000/svg">
<path d="M14.4204 2.83992L9.03039 7.03992C8.13039 7.73992 7.40039 9.22992 7.40039 10.3599V17.7699C7.40039 20.0899 9.29039 21.9899 11.6104 21.9899H23.1904C25.5104 21.9899 27.4004 20.0899 27.4004 17.7799V10.4999C27.4004 9.28992 26.5904 7.73992 25.6004 7.04992L19.4204 2.71992C18.0204 1.73992 15.7704 1.78992 14.4204 2.83992Z" stroke="#888888" stroke-width="1.5" stroke-linecap="round" stroke-linejoin="round"/>
<path d="M15.9004 18H18.9004C20.5504 18 21.9004 16.65 21.9004 15V12C21.9004 10.35 20.5504 9 18.9004 9H15.9004C14.2504 9 12.9004 10.35 12.9004 12V15C12.9004 16.65 14.2504 18 15.9004 18Z" stroke="#888888" stroke-width="1.5" stroke-linecap="round" stroke-linejoin="round"/>
<path d="M17.4004 9V18" stroke="#888888" stroke-width="1.5" stroke-linecap="round" stroke-linejoin="round"/>
<path d="M12.9004 13.5H21.9004" stroke="#888888" stroke-width="1.5" stroke-linecap="round" stroke-linejoin="round"/>
<path d="M6.96039 31.66V40H5.59239V36.352H1.66839V40H0.300391V31.66H1.66839V35.236H5.59239V31.66H6.96039ZM11.6293 40.108C11.0053 40.108 10.4413 39.968 9.93733 39.688C9.43333 39.4 9.03733 39 8.74933 38.488C8.46133 37.968 8.31733 37.368 8.31733 36.688C8.31733 36.016 8.46533 35.42 8.76133 34.9C9.05733 34.38 9.46133 33.98 9.97333 33.7C10.4853 33.42 11.0573 33.28 11.6893 33.28C12.3213 33.28 12.8933 33.42 13.4053 33.7C13.9173 33.98 14.3213 34.38 14.6173 34.9C14.9133 35.42 15.0613 36.016 15.0613 36.688C15.0613 37.36 14.9093 37.956 14.6053 38.476C14.3013 38.996 13.8853 39.4 13.3573 39.688C12.8373 39.968 12.2613 40.108 11.6293 40.108ZM11.6293 38.92C11.9813 38.92 12.3093 38.836 12.6133 38.668C12.9253 38.5 13.1773 38.248 13.3693 37.912C13.5613 37.576 13.6573 37.168 13.6573 36.688C13.6573 36.208 13.5653 35.804 13.3813 35.476C13.1973 35.14 12.9533 34.888 12.6493 34.72C12.3453 34.552 12.0173 34.468 11.6653 34.468C11.3133 34.468 10.9853 34.552 10.6813 34.72C10.3853 34.888 10.1493 35.14 9.97333 35.476C9.79733 35.804 9.70933 36.208 9.70933 36.688C9.70933 37.4 9.88933 37.952 10.2493 38.344C10.6173 38.728 11.0773 38.92 11.6293 38.92ZM24.4177 33.28C24.9377 33.28 25.4017 33.388 25.8097 33.604C26.2257 33.82 26.5497 34.14 26.7817 34.564C27.0217 34.988 27.1417 35.5 27.1417 36.1V40H25.7857V36.304C25.7857 35.712 25.6377 35.26 25.3417 34.948C25.0457 34.628 24.6417 34.468 24.1297 34.468C23.6177 34.468 23.2097 34.628 22.9057 34.948C22.6097 35.26 22.4617 35.712 22.4617 36.304V40H21.1057V36.304C21.1057 35.712 20.9577 35.26 20.6617 34.948C20.3657 34.628 19.9617 34.468 19.4497 34.468C18.9377 34.468 18.5297 34.628 18.2257 34.948C17.9297 35.26 17.7817 35.712 17.7817 36.304V40H16.4137V33.388H17.7817V34.144C18.0057 33.872 18.2897 33.66 18.6337 33.508C18.9777 33.356 19.3457 33.28 19.7377 33.28C20.2657 33.28 20.7377 33.392 21.1537 33.616C21.5697 33.84 21.8897 34.164 22.1137 34.588C22.3137 34.188 22.6257 33.872 23.0497 33.64C23.4737 33.4 23.9297 33.28 24.4177 33.28ZM34.9424 36.532C34.9424 36.78 34.9264 37.004 34.8944 37.204H29.8424C29.8824 37.732 30.0784 38.156 30.4304 38.476C30.7824 38.796 31.2144 38.956 31.7264 38.956C32.4624 38.956 32.9824 38.648 33.2864 38.032H34.7624C34.5624 38.64 34.1984 39.14 33.6704 39.532C33.1504 39.916 32.5024 40.108 31.7264 40.108C31.0944 40.108 30.5264 39.968 30.0224 39.688C29.5264 39.4 29.1344 39 28.8464 38.488C28.5664 37.968 28.4264 37.368 28.4264 36.688C28.4264 36.008 28.5624 35.412 28.8344 34.9C29.1144 34.38 29.5024 33.98 29.9984 33.7C30.5024 33.42 31.0784 33.28 31.7264 33.28C32.3504 33.28 32.9064 33.416 33.3944 33.688C33.8824 33.96 34.2624 34.344 34.5344 34.84C34.8064 35.328 34.9424 35.892 34.9424 36.532ZM33.5144 36.1C33.5064 35.596 33.3264 35.192 32.9744 34.888C32.6224 34.584 32.1864 34.432 31.6664 34.432C31.1944 34.432 30.7904 34.584 30.4544 34.888C30.1184 35.184 29.9184 35.588 29.8544 36.1H33.5144Z" fill="#888888"/>
</svg>
