<svg width="16" height="16" viewBox="0 0 16 16" fill="none" xmlns="http://www.w3.org/2000/svg">
<path d="M13.3346 6.66683C13.3346 9.9955 9.64197 13.4622 8.40197 14.5328C8.28645 14.6197 8.14583 14.6667 8.0013 14.6667C7.85677 14.6667 7.71615 14.6197 7.60064 14.5328C6.36064 13.4622 2.66797 9.9955 2.66797 6.66683C2.66797 5.25234 3.22987 3.89579 4.23007 2.89559C5.23026 1.8954 6.58681 1.3335 8.0013 1.3335C9.41579 1.3335 10.7723 1.8954 11.7725 2.89559C12.7727 3.89579 13.3346 5.25234 13.3346 6.66683Z" stroke="#080C09" stroke-width="1.33333" stroke-linecap="round" stroke-linejoin="round"/>
<path d="M8 8.6665C9.10457 8.6665 10 7.77107 10 6.6665C10 5.56193 9.10457 4.6665 8 4.6665C6.89543 4.6665 6 5.56193 6 6.6665C6 7.77107 6.89543 8.6665 8 8.6665Z" stroke="#080C09" stroke-width="1.33333" stroke-linecap="round" stroke-linejoin="round"/>
</svg>
