<svg width="18" height="22" viewBox="0 0 18 22" fill="none" xmlns="http://www.w3.org/2000/svg">
<path d="M9.01862 1.90991C5.70862 1.90991 3.01862 4.59991 3.01862 7.90991V10.7999C3.01862 11.4099 2.75862 12.3399 2.44862 12.8599L1.29862 14.7699C0.588623 15.9499 1.07862 17.2599 2.37862 17.6999C6.68862 19.1399 11.3386 19.1399 15.6486 17.6999C16.8586 17.2999 17.3886 15.8699 16.7286 14.7699L15.5786 12.8599C15.2786 12.3399 15.0186 11.4099 15.0186 10.7999V7.90991C15.0186 4.60991 12.3186 1.90991 9.01862 1.90991Z" stroke="#080C09" stroke-width="1.5" stroke-miterlimit="10" stroke-linecap="round"/>
<path d="M10.8719 2.19994C10.5619 2.10994 10.2419 2.03994 9.91187 1.99994C8.95187 1.87994 8.03188 1.94994 7.17188 2.19994C7.46187 1.45994 8.18188 0.939941 9.02188 0.939941C9.86188 0.939941 10.5819 1.45994 10.8719 2.19994Z" stroke="#080C09" stroke-width="1.5" stroke-miterlimit="10" stroke-linecap="round" stroke-linejoin="round"/>
<path d="M12.0195 18.0601C12.0195 19.7101 10.6695 21.0601 9.01953 21.0601C8.19953 21.0601 7.43953 20.7201 6.89953 20.1801C6.35953 19.6401 6.01953 18.8801 6.01953 18.0601" stroke="#4A4A4A" stroke-width="1.5" stroke-miterlimit="10"/>
</svg>
