<svg width="20" height="20" viewBox="0 0 20 20" fill="none" xmlns="http://www.w3.org/2000/svg">
<path d="M15.8328 9.8999C15.0386 9.8999 14.2931 10.2141 13.7327 10.784C12.5799 11.9575 12.5799 13.868 13.7327 15.0419L15.2478 16.5822C15.1766 16.6226 15.1086 16.6682 15.0475 16.7231H4.75099C4.68958 16.6682 4.62165 16.6226 4.55074 16.5822L6.06609 15.0416C7.21892 13.868 7.21892 11.9575 6.06609 10.7837C5.50599 10.2138 4.76048 9.8999 3.96632 9.8999C3.17216 9.8999 2.42694 10.2141 1.86685 10.7837C1.30793 11.3518 1 12.108 1 12.9128C1 13.7176 1.30793 14.4738 1.86685 15.0419L3.38486 16.5852C3.02561 16.7893 2.77997 17.1711 2.77997 17.6131C2.77997 18.2675 3.31218 18.7998 3.96662 18.7998C4.26002 18.7998 4.53888 18.6933 4.75158 18.5031H15.0484C15.2611 18.6933 15.54 18.7998 15.8334 18.7998C16.4878 18.7998 17.02 18.2675 17.02 17.6131C17.02 17.1711 16.7744 16.7896 16.4151 16.5852L17.9332 15.0419C18.4921 14.4738 18.8 13.7176 18.8 12.9128C18.8 12.108 18.4921 11.3518 17.9332 10.7837C17.3731 10.2138 16.6275 9.8999 15.8337 9.8999H15.8328ZM1.59273 12.9128C1.59273 12.2646 1.84015 11.6564 2.28929 11.1999C2.73725 10.7442 3.33265 10.4932 3.96573 10.4932C4.5988 10.4932 5.1948 10.7442 5.64216 11.1996C6.56982 12.1444 6.56982 13.6814 5.64216 14.626L3.96573 16.3306L2.289 14.626C1.83985 14.1695 1.59243 13.561 1.59243 12.9131L1.59273 12.9128ZM15.8325 18.2064C15.6619 18.2064 15.5023 18.1355 15.3943 18.0115C15.3383 17.9469 15.2564 17.9098 15.1706 17.9098H4.62728C4.54155 17.9098 4.45997 17.9469 4.4033 18.0118C4.29591 18.1355 4.1366 18.2064 3.96573 18.2064C3.63851 18.2064 3.3724 17.9403 3.3724 17.6131C3.3724 17.2859 3.63851 17.0198 3.96573 17.0198C4.13631 17.0198 4.29561 17.0907 4.4033 17.2144C4.45967 17.2794 4.54155 17.3164 4.62728 17.3164H15.1706C15.2564 17.3164 15.338 17.2794 15.3943 17.2147C15.502 17.0907 15.6616 17.0198 15.8325 17.0198C16.1597 17.0198 16.4258 17.2859 16.4258 17.6131C16.4258 17.9403 16.1597 18.2064 15.8325 18.2064ZM17.5092 14.626L15.8328 16.3306L14.1564 14.6263C13.2287 13.6814 13.2287 12.1444 14.1564 11.1999C14.6043 10.7442 15.1997 10.4932 15.8331 10.4932C16.4665 10.4932 17.0619 10.7442 17.5095 11.1999C17.9587 11.6564 18.2061 12.2649 18.2061 12.9128C18.2061 13.5607 17.9587 14.1692 17.5095 14.6257L17.5092 14.626Z" fill="black"/>
<path d="M15.8308 11.0867C14.8491 11.0867 14.0508 11.885 14.0508 12.8666C14.0508 13.8483 14.8491 14.6466 15.8308 14.6466C16.8124 14.6466 17.6107 13.8483 17.6107 12.8666C17.6107 11.885 16.8124 11.0867 15.8308 11.0867ZM15.8308 14.0533C15.1763 14.0533 14.6441 13.5211 14.6441 12.8666C14.6441 12.2122 15.1763 11.68 15.8308 11.68C16.4852 11.68 17.0174 12.2122 17.0174 12.8666C17.0174 13.5211 16.4852 14.0533 15.8308 14.0533Z" fill="black"/>
<path d="M5.74744 12.8666C5.74744 11.885 4.94912 11.0867 3.96747 11.0867C2.98582 11.0867 2.1875 11.885 2.1875 12.8666C2.1875 13.8483 2.98582 14.6466 3.96747 14.6466C4.94912 14.6466 5.74744 13.8483 5.74744 12.8666ZM2.78082 12.8666C2.78082 12.2122 3.31303 11.68 3.96747 11.68C4.62191 11.68 5.15412 12.2122 5.15412 12.8666C5.15412 13.5211 4.62191 14.0533 3.96747 14.0533C3.31303 14.0533 2.78082 13.5211 2.78082 12.8666Z" fill="black"/>
<path d="M5.07775 5.48048C4.77694 5.53062 4.55859 5.78812 4.55859 6.09309V6.58673C4.55859 6.8917 4.77694 7.1492 5.07745 7.19934L5.16052 7.21328C5.2065 7.46485 5.27296 7.71256 5.3581 7.95286L5.29372 8.00567C5.05847 8.19939 4.99825 8.53135 5.15043 8.79597L5.39726 9.22346C5.55004 9.48808 5.86865 9.60111 6.15315 9.49461L6.23295 9.46465C6.39879 9.65867 6.57945 9.83963 6.77347 10.0052L6.74351 10.0847C6.63671 10.3701 6.75033 10.6881 7.01466 10.8409L7.44244 11.0877C7.70677 11.2405 8.03903 11.1791 8.23245 10.9444L8.28526 10.88C8.52585 10.9652 8.77356 11.0316 9.02484 11.0776L9.03878 11.1604C9.08891 11.4612 9.34642 11.6795 9.65138 11.6795H10.145C10.45 11.6795 10.7075 11.4612 10.7576 11.1607L10.7716 11.0776C11.0231 11.0316 11.2709 10.9652 11.5112 10.88L11.564 10.9444C11.7577 11.1796 12.0902 11.2396 12.3543 11.0877L12.7818 10.8409C13.0461 10.6881 13.1597 10.3701 13.0529 10.085L13.0229 10.0052C13.217 9.83933 13.3979 9.65867 13.5635 9.46465L13.643 9.49461C13.9287 9.60111 14.2464 9.48808 14.3992 9.22346L14.646 8.79568C14.7982 8.53135 14.7379 8.19939 14.5027 8.00567L14.4383 7.95286C14.5235 7.71227 14.5899 7.46456 14.6359 7.21328L14.7187 7.19934C15.0195 7.1492 15.2378 6.8917 15.2378 6.58673V6.09309C15.2378 5.78812 15.0195 5.53062 14.7187 5.48048L14.6359 5.46654C14.5899 5.21497 14.5235 4.96726 14.4383 4.72696L14.5027 4.67416C14.7379 4.48044 14.7982 4.14847 14.646 3.88385L14.3992 3.45636C14.2464 3.19203 13.9281 3.07841 13.6433 3.18521L13.5635 3.21517C13.3976 3.02116 13.217 2.84019 13.0229 2.67466L13.0529 2.59515C13.1597 2.30976 13.0461 1.99174 12.7818 1.83896L12.354 1.59214C12.0896 1.43936 11.7574 1.50076 11.564 1.73542L11.5112 1.7998C11.2706 1.71466 11.0229 1.64821 10.7716 1.60222L10.7576 1.51945C10.7081 1.21834 10.4503 1 10.1453 1H9.65168C9.34671 1 9.08891 1.21834 9.03908 1.51886L9.02513 1.60193C8.77356 1.64791 8.52585 1.71436 8.28555 1.7995L8.23275 1.73513C8.03933 1.49987 7.70706 1.44025 7.44244 1.59184L7.01495 1.83866C6.75063 1.99144 6.63701 2.30946 6.7438 2.59456L6.77377 2.67436C6.57975 2.84019 6.39879 3.02086 6.23325 3.21488L6.15374 3.18491C5.86836 3.07812 5.55033 3.19174 5.39755 3.45606L5.15073 3.88385C4.99854 4.14817 5.05877 4.48014 5.29402 4.67386L5.35839 4.72666C5.27325 4.96726 5.2068 5.21497 5.16082 5.46624L5.07805 5.48019L5.07775 5.48048ZM5.46875 6.01685C5.59691 5.99549 5.69629 5.89314 5.71379 5.76409C5.76126 5.41403 5.85293 5.07109 5.98583 4.74535C6.03508 4.62491 6.00007 4.48667 5.8998 4.40419L5.67107 4.21581C5.66069 4.20751 5.65773 4.19208 5.66455 4.18051L5.91137 3.75302C5.9176 3.74145 5.93184 3.73581 5.94519 3.74086L6.22405 3.84558C6.34479 3.89097 6.48244 3.85211 6.56225 3.75005C6.77881 3.47179 7.02979 3.22081 7.30835 3.00395C7.4107 2.92415 7.44956 2.78739 7.40388 2.66576L7.29915 2.3866C7.29441 2.37414 7.29975 2.3596 7.31132 2.35307L7.73851 2.10625C7.75067 2.09973 7.7661 2.10239 7.77411 2.11278L7.96249 2.3415C8.04526 2.44148 8.18291 2.47619 8.30365 2.42754C8.62939 2.29463 8.97233 2.20296 9.32239 2.1555C9.45144 2.1377 9.55349 2.03832 9.57514 1.91045L9.62409 1.61676C9.62647 1.60371 9.63833 1.59362 9.65168 1.59362H10.1453C10.1587 1.59362 10.1705 1.60371 10.1729 1.61706L10.2219 1.91045C10.2432 2.03861 10.3456 2.13799 10.4746 2.1555C10.8247 2.20296 11.1676 2.29463 11.4934 2.42754C11.6141 2.47649 11.7517 2.44178 11.8345 2.3415L12.0229 2.11278C12.0315 2.10269 12.0475 2.09973 12.0582 2.10625L12.4857 2.35307C12.4973 2.3596 12.5026 2.37414 12.4979 2.38689L12.3931 2.66576C12.3477 2.78709 12.3866 2.92415 12.4887 3.00395C12.7669 3.22051 13.0179 3.47149 13.2348 3.75005C13.3146 3.8524 13.4519 3.89186 13.573 3.84558L13.8521 3.74086C13.864 3.73581 13.8794 3.74145 13.8856 3.75302L14.1325 4.18021C14.139 4.19208 14.1363 4.20751 14.1259 4.21581L13.8972 4.40419C13.7969 4.48667 13.7619 4.62491 13.8112 4.74535C13.9441 5.07109 14.0357 5.41403 14.0832 5.76409C14.101 5.89314 14.2004 5.99519 14.3283 6.01685L14.6217 6.0658C14.6347 6.06817 14.6448 6.08004 14.6448 6.09339V6.58703C14.6448 6.60038 14.6347 6.61225 14.6214 6.61462L14.328 6.66357C14.1998 6.68493 14.1004 6.78728 14.0829 6.91632C14.0355 7.26639 13.9438 7.60933 13.8109 7.93506C13.7616 8.05551 13.7966 8.19375 13.8969 8.27622L14.1256 8.4646C14.136 8.47291 14.139 8.48833 14.1322 8.4999L13.8853 8.92739C13.8791 8.93867 13.8643 8.9443 13.8515 8.93956L13.5727 8.83484C13.4513 8.78885 13.314 8.82831 13.2345 8.93036C13.0179 9.20863 12.7669 9.45961 12.4884 9.67647C12.386 9.75627 12.3471 9.89303 12.3928 10.0147L12.4976 10.2938C12.5023 10.3063 12.497 10.3208 12.4854 10.3273L12.0582 10.5742C12.046 10.5807 12.0306 10.578 12.0226 10.5676L11.8342 10.3389C11.7515 10.2386 11.6135 10.2042 11.4931 10.2529C11.1673 10.3858 10.8244 10.4775 10.4743 10.5249C10.3453 10.5427 10.2432 10.6421 10.2216 10.77L10.1726 11.0637C10.1702 11.0767 10.1584 11.0868 10.145 11.0868H9.65138C9.63803 11.0868 9.62617 11.0767 9.6238 11.0634L9.57485 10.77C9.55349 10.6418 9.45114 10.5424 9.32209 10.5249C8.97203 10.4775 8.62909 10.3858 8.30335 10.2529C8.26686 10.238 8.22889 10.2309 8.19122 10.2309C8.10459 10.2309 8.01975 10.2692 7.96219 10.3389L7.77381 10.5676C7.76551 10.578 7.74978 10.581 7.73851 10.5742L7.31102 10.3273C7.29945 10.3208 7.29411 10.3063 7.29886 10.2935L7.40358 10.0147C7.44897 9.89332 7.41011 9.75627 7.30805 9.67647C7.02979 9.4599 6.77881 9.20893 6.56195 8.93036C6.48244 8.82831 6.34539 8.78974 6.22376 8.83484L5.9446 8.93956C5.93273 8.9443 5.9173 8.93867 5.91107 8.92739L5.66425 8.5002C5.65773 8.48833 5.6604 8.47291 5.67078 8.4646L5.8995 8.27622C5.99978 8.19375 6.03478 8.05551 5.98554 7.93506C5.85263 7.60933 5.76096 7.26639 5.7135 6.91632C5.6957 6.78728 5.59632 6.68523 5.46846 6.66357L5.17476 6.61462C5.16171 6.61225 5.15162 6.60038 5.15162 6.58703V6.09339C5.15162 6.08004 5.16171 6.06817 5.17506 6.0658L5.46875 6.01685Z" fill="black"/>
<path d="M9.89978 9.89991C11.8628 9.89991 13.4597 8.30298 13.4597 6.33997C13.4597 4.37696 11.8628 2.78003 9.89978 2.78003C7.93677 2.78003 6.33984 4.37696 6.33984 6.33997C6.33984 8.30298 7.93677 9.89991 9.89978 9.89991ZM9.89978 3.37335C11.5356 3.37335 12.8664 4.70418 12.8664 6.33997C12.8664 7.97576 11.5356 9.30659 9.89978 9.30659C8.26399 9.30659 6.93317 7.97576 6.93317 6.33997C6.93317 4.70418 8.26399 3.37335 9.89978 3.37335Z" fill="black"/>
<path d="M9.90064 8.71338C11.2092 8.71338 12.2739 7.64867 12.2739 6.34009C12.2739 5.03152 11.2092 3.9668 9.90064 3.9668C8.59206 3.9668 7.52734 5.03152 7.52734 6.34009C7.52734 7.64867 8.59206 8.71338 9.90064 8.71338ZM9.90064 4.56012C10.8823 4.56012 11.6806 5.35844 11.6806 6.34009C11.6806 7.32174 10.8823 8.12006 9.90064 8.12006C8.91898 8.12006 8.12067 7.32174 8.12067 6.34009C8.12067 5.35844 8.91898 4.56012 9.90064 4.56012Z" fill="black"/>
</svg>
