<svg width="13" height="14" viewBox="0 0 13 14" fill="none" xmlns="http://www.w3.org/2000/svg">
<path fill-rule="evenodd" clip-rule="evenodd" d="M3.41825 4.35545C3.68157 4.35545 3.89529 4.56916 3.89529 4.83249C3.89529 5.09581 3.68157 5.30953 3.41825 5.30953H2.82481C1.79504 5.30953 0.957988 6.14657 0.957988 7.17571V10.2765C0.957988 11.3062 1.79504 12.1433 2.82481 12.1433H9.90409C10.9332 12.1433 11.7709 11.3062 11.7709 10.2765V7.16999C11.7709 6.14403 10.9364 5.30953 9.91109 5.30953H9.31129C9.04796 5.30953 8.83425 5.09581 8.83425 4.83249C8.83425 4.56916 9.04796 4.35545 9.31129 4.35545H9.91109C11.4624 4.35545 12.725 5.61801 12.725 7.16999V10.2765C12.725 11.8323 11.4592 13.0974 9.90409 13.0974H2.82481C1.26965 13.0974 0.00390625 11.8323 0.00390625 10.2765V7.17571C0.00390625 5.62056 1.26965 4.35545 2.82481 4.35545H3.41825ZM6.70194 0.175042L8.55667 2.03741C8.7424 2.22441 8.74177 2.5259 8.5554 2.71163C8.3684 2.89735 8.06691 2.89735 7.88119 2.71035L6.84086 1.66643L6.84124 8.64684H5.88716L5.88677 1.66643L4.84784 2.71035C4.75498 2.80449 4.63222 2.85092 4.5101 2.85092C4.38861 2.85092 4.26649 2.80449 4.17362 2.71163C3.98726 2.5259 3.98599 2.22441 4.17235 2.03741L6.02645 0.175042C6.20518 -0.00496179 6.52321 -0.00496179 6.70194 0.175042Z" fill="#047720"/>
</svg>
